<?xml version="1.0" encoding="iso-8859-1"?>
<!-- Generator: Adobe Illustrator 23.0.0, SVG Export Plug-In . SVG Version: 6.00 Build 0)  -->
<svg version="1.1" id="Layer_1" xmlns="http://www.w3.org/2000/svg" xmlns:xlink="http://www.w3.org/1999/xlink" x="0px" y="0px"
	 viewBox="0 0 3401.575 3401.575" style="enable-background:new 0 0 3401.575 3401.575;" xml:space="preserve">
<g>
	<path d="M941.413,2603.819c-0.957,9.049-3.866,17.445-14.915,17.409c-9.178-0.029-13.61-6.72-13.98-15.365
		c-0.422-9.845,3.596-17.678,14.446-17.657C935.951,2588.223,940.153,2594.983,941.413,2603.819z"/>
	<path d="M2563.084,2647.13c9.447,0.234,14.868,5.825,15.707,14.137c0.964,9.544-3.29,17.375-14.039,18.246
		c-9.377,0.76-14.29-5.375-15.258-13.941C2548.372,2655.642,2552.722,2648.882,2563.084,2647.13z"/>
	<path d="M2710.599,1815.104c-0.791,517.678-423.966,938.281-942.272,936.546c-517.833-1.733-934.197-423.055-933.613-944.729
		c0.574-512.964,423.83-933.118,935.842-933.536C2285.092,872.963,2711.66,1291.642,2710.599,1815.104z M1773.154,2713.289
		c504.111-3.806,902.421-406.78,899.016-909.847c-3.291-486.337-400.559-894.354-905.106-891.85
		c-498.836,2.476-901.928,411.531-894.905,911.318C879.304,2331.404,1292.344,2714.633,1773.154,2713.289z"/>
	<path d="M1795.82,2193.322c-2.593-15.801,5.438-27.922,9.393-40.843c4.055-13.249,1.945-21.57-11.516-28.681
		c-35.764-18.895-71.071-38.877-97.916-70.336c-4.442-5.206-9.206-7.04-15.396-3.423c-21.025,12.284-44.003,21.786-62.379,43.396
		c40.624,23.75,71.902,56.66,105.909,86.449c41.689,36.518,80.129,76.19,115.321,118.564
		c55.471,66.792,66.306,143.565,38.409,224.864c-19.392,56.513-69.317,117.673-115.214,142.434
		c6.324-7.511,12.479-15.172,18.998-22.509c45.753-51.487,70.723-110.509,68.268-180.512c-1.041-29.692-11.1-55.9-24.84-81.182
		c-45.783-84.243-106.803-155.617-182.106-214.939c-15.447-12.169-30.725-24.564-43.056-40.316
		c-13.289-16.975-29.474-23.305-51.912-16.099c-30.202,9.699-61.832,11.772-93.651,9.959
		c-50.308-2.867-87.988-26.076-111.675-70.341c-6.594-12.324-11.487-12.728-22.152-5.283c-24.38,17.018-51.974,28.115-79.178,39.675
		c-30.779,13.08-63.248,14.607-95.969,11.235c-43.092-4.441-70.101-38.472-65.216-82.066c3.744-33.413,18.708-62.13,40.017-87.511
		c24.319-28.966,53.85-52.006,85.813-71.923c34.299-21.373,68.12-43.668,103.492-63.118c33.884-18.632,35.159-47.673,32.749-82.055
		c-26.356,7.844-40.944,29.752-65.469,37.769c16.756-16.711,32.451-34.704,50.598-49.737c15.121-12.527,21.785-27.408,22.521-45.901
		c0.826-20.735,8.754-40.269,9.378-61.1c4.917,24.874,0.526,49.705-1.37,78.351c17.762-8.115,31.876-14.129,45.59-20.948
		c14.575-7.247,29.75-10.796,45.818-8.325c19.039,2.928,26.733,16.73,19.372,34.567c-4.985,12.079-14.656,20.831-23.297,30.309
		c-26.004,28.522-57.961,50.436-85.488,77.292c-6.545,6.386-13.184,11.699-13.305,21.67c-0.672,55.172-5.058,110.403,2.532,165.434
		c0.636,4.613,0.869,9.83,6.384,13.526c20.944-4.37,34.906-22.512,58.395-35.329c-11.275,22.995-26.404,35.708-37.89,50.936
		c-10.954,14.522-8.676,24.794,4.682,34.91c40.51,30.679,84.602,45.073,136.433,30.417c-1.957-14.88-13.663-21.738-22.308-30.543
		c-49.483-50.402-78.903-108.712-81.382-181.232c-2.091-61.178,24.656-108.64,61.745-152.187
		c13.4-15.733,17.121-25.803,5.196-45.609c-22.328-37.085-10.947-107.551,17.39-136.162c34.801-35.138,89.906-42.638,137.041-19.402
		c28.926,14.259,51.202,36.533,73.811,58.562c10.126,9.866,6.219,16.047-4.422,22.769c-39.167,24.745-77.137,51.213-114.518,78.66
		c-50.881,37.36-52.868,43.905-15.029,98.87c-15.866-4.564-23.416-14.509-30.643-23.45c-11.425-14.134-19.943-10.852-30.793,0.844
		c-19.959,21.516-34.185,45.553-39.625,74.662c-17.526,93.784,9.442,171.12,84.275,231.343c8.848,7.121,17.167,8.231,27.319,4.948
		c21.657-7.004,42.232-16.404,62.619-26.459c13.376-6.597,16.984-14.704,9.226-28.027c-11.992-20.594-18.5-43.525-26.561-65.754
		c-23.549-64.932-17.133-128.239,12.945-189.248c25.795-52.32,59.742-99.734,94.387-146.405
		c12.054-16.238,13.831-28.072-0.333-43.673c-10.503-11.569-18.967-24.971-30.398-36.066
		c-54.696-53.093-63.441-120.905-56.669-191.509c9.813-102.314,52.198-190.888,120.524-267.518
		c34.089-38.232,67.021-77.488,110.887-106.86c6.722,3.14,2.529,9.886,1.275,14.406c-19.327,69.628-11.574,138.885,2.409,208.038
		c4.885,24.159,9.9,48.341,16.204,72.156c19.023,71.858,7.863,140.297-20.289,207.666c-18.722,44.804-43.792,86.129-66.906,128.522
		c-9.553,17.52-10.431,31.56,2.326,48.564c24.879,33.164,44.947,69.766,62.962,106.908c26.708,55.063,27.556,114.346,18.88,173.759
		c-5.11,34.995-15.464,68.776-26.939,103.012c12.702-16.893,26.15-33.282,37.952-50.781c25.886-38.379,60.405-67.323,98.387-92.683
		c31.904-21.302,67.577-26.033,104.86-23.299c21.472,1.574,39.269,13.484,48.938,29.985c31.833,54.33,48.381,101.034,0.848,164.033
		c-8.165,10.822-18.024,20.686-22.041,37.208c60.96,0.737,112.771-14.741,149.709-63.875c47.707-63.459,47.5-88.033,1.948-153.508
		c-9.568-13.753-19.674-27.282-27.743-41.901c-22.165-40.16-17.51-90.101,10.159-118.94c4.713-4.912,9.547-11.544,17.074-9.754
		c9.372,2.229,6.009,11.289,6.197,17.488c1.109,36.761,9.84,72.115,18.238,107.644c10.864,45.964,20.264,92.273,30.904,138.292
		c12.278,53.102-8.918,92.332-50.422,122.912c-50.333,37.085-106.597,45.103-165.826,28.733
		c-19.802-5.473-35.228-3.832-52.764,6.529c-66.338,39.19-138.7,50.591-213.962,38.217c-23.844-3.92-36.715,2.304-47.614,22.078
		C1810.958,2174.347,1806.599,2185.738,1795.82,2193.322z M1769.753,1719.203c0.663,6.818,1.693,10.697,1.305,14.428
		c-6.115,58.919-7.18,117.984-6.545,177.173c0.289,26.9-6.693,52.544-18.522,76.98c-13.014,26.885-12.545,27.112,8.137,47.082
		c34.047,32.875,41.106,30.76,60.191-12.944c29.738-68.1,32.191-139.537,28.643-211.916
		c-3.153-64.323-25.469-122.977-53.438-180.002c-6.668-13.596-12.641-16.318-22.554-2.691c-9.25,12.716-20.012,24.319-29.815,36.646
		c-39.297,49.415-77.924,99.098-99.574,159.729c-8.983,25.155-9.367,47.109,7.781,69.301c16.236,21.011,30.125,43.838,45.005,65.894
		c13.36,19.803,17.204,20.082,30.352,1.013c11.131-16.144,16.262-33.67,9.63-53.12c-3.81-11.173-7.49-22.415-11.884-33.362
		C1691.818,1807.035,1705.711,1762.657,1769.753,1719.203z M1769.586,1534.733c27.825-23.646,39.964-54.157,55.386-82.607
		c24.167-44.583,35.074-91.345,29.008-142.318c-3.732-31.363-7.566-62.667-14.719-93.372
		c-15.087-64.763-16.102-128.673,6.239-192.292c3.608-10.273,11.258-21.094,5.664-33.702
		C1724.575,1113.771,1676.188,1315.591,1769.586,1534.733z M1860.975,2092.235c91.877,11.771,169.733-14.846,240.583-63.993
		c29.577-20.517,49.848-50.494,62.487-84.397c11.219-30.095-1.249-48.288-32.896-49.918c-9.759-0.503-19.765-0.052-29.402,1.53
		c-79.306,13.016-138.768,58.322-188.02,118.582C1894.655,2037.375,1875.33,2061.126,1860.975,2092.235z M1333.093,1797.237
		c-49.879,37.983-97.687,73.708-138.216,118.144c-12.624,13.84-24.12,28.498-32.411,45.452
		c-18.172,37.163-0.415,71.956,39.856,80.196c40.436,8.274,75.24-5.32,109.634-24.13c18.611-10.178,26.828-23.535,24.478-45.021
		c-5.039-46.086-2.33-92.261,0.32-138.412C1337.355,1823.019,1339.894,1812.169,1333.093,1797.237z M1669.249,1573.693
		c-8.724-19.693-23.059-31.66-37.418-42.848c-46.552-36.273-111.123-11.272-122.852,46.545c-3.67,18.092-1.064,35.14,4.404,52.057
		c7.026,21.734,7.878,22.642,27.752,11.65C1583.03,1617.927,1623.16,1591.552,1669.249,1573.693z M1352.616,1756.749
		c29.188-15.789,51.743-32.43,71.357-52.83c7.171-7.458,10.58-16.908,3.619-26.691c-5.967-8.386-14.744-8.96-23.792-6.676
		c-16.581,4.186-30.241,14.265-43.16,24.517c-9.404,7.462-3.784,20.342-5.349,30.714
		C1354.001,1734.319,1353.75,1743.011,1352.616,1756.749z"/>
	<path d="M1638.483,2185.413c-1.89,11.427-10.932,18.07-18.467,25.558c-28.526,28.348-30.053,28.254-58.226-0.145
		c-18.425-18.573-18.433-18.582-36.735-1.852c-2.899,2.65-5.617,5.5-8.539,8.124c-33.796,30.346-34.039,29.819-63.167-5.272
		c-8.734-10.522-9.608-18.33-1.081-28.081c5.174-5.918,9.993-12.169,15.429-17.832c21.395-22.287,25.514-22.306,46.986-1.009
		c20.916,20.745,22.694,20.802,44.87,1.304c1.472-1.294,2.796-2.757,4.209-4.12c9.719-9.369,18.6-25.336,33.186-20.422
		c17.632,5.941,28.233,23.413,39.863,37.919C1637.924,2180.972,1637.904,2183.267,1638.483,2185.413z"/>
	<path d="M2049.305,1705.477c8.64,1.598,13.102,8.417,18.184,14.255c28.784,33.069,28.37,37.774-5.236,64.803
		c-2.297,1.848-4.931,3.359-6.937,5.473c-10.797,11.377-19.817,7.849-30.13-1.672c-33.748-31.155-34.125-37.05-0.429-68.029
		C2031.859,1713.778,2038.414,1705.825,2049.305,1705.477z"/>
	<path d="M2311.654,1597.758c-0.788,5.185-4.276,8.668-7.783,12.092c-9.122,8.905-19.031,17.13-27.254,26.794
		c-9.022,10.602-17.261,11.107-27.113,1.895c-10.522-9.84-25.095-15.975-29.754-31.082c-1.273-4.129,37.955-44.708,43.59-46.673
		c5.196-1.812,9.704-0.478,13.69,2.74c9.917,8.005,19.78,16.082,29.469,24.359
		C2309.392,1590.354,2312.478,1593.15,2311.654,1597.758z"/>
</g>
<circle style="fill:none;stroke:#000000;stroke-width:20;stroke-miterlimit:10;" cx="1772.404" cy="1809.147" r="1093.645"/>
<g>
	<path d="M386.933,1342.762c3.033,1.02,4.291,3.553,3.271,6.587l-16.706,49.665l230.127,77.407c3.032,1.02,4.29,3.553,3.27,6.586
		l-11.86,35.258c-1.02,3.033-3.553,4.29-6.585,3.27l-230.127-77.407l-16.075,50.3c-1.02,3.033-3.554,4.291-6.586,3.271
		l-34.121-11.477c-3.033-1.02-4.291-3.553-3.271-6.587l48.714-144.825c1.02-3.033,3.554-4.291,6.587-3.271L386.933,1342.762z"/>
	<path d="M448.943,1101.064c1.756-2.676,4.525-3.25,7.201-1.495l99.105,65.508l37.525-57.187l-99.763-64.505
		c-2.676-1.756-3.251-4.524-1.495-7.2l20.628-31.436c1.756-2.676,4.525-3.251,7.201-1.495l236.993,155.03
		c2.675,1.755,3.25,4.525,1.495,7.199l-20.408,31.102c-1.755,2.675-4.524,3.25-7.199,1.495l-99.325-65.174l-37.525,57.187
		l99.764,64.505c2.675,1.755,3.25,4.525,1.495,7.199l-20.847,31.771c-1.756,2.676-4.525,3.25-7.199,1.495L429.811,1139.7
		c-2.676-1.756-3.251-4.524-1.495-7.2L448.943,1101.064z"/>
	<path d="M795.757,738.213c2.035,2.47,1.763,5.285-0.707,7.32l-63.594,52.396l49.852,60.507l45.689-37.644
		c2.47-2.035,5.284-1.763,7.319,0.707l22.383,27.166c2.035,2.47,1.764,5.285-0.706,7.32l-45.689,37.644l49.598,60.198l63.848-52.087
		c2.47-2.035,5.285-1.763,7.32,0.706l22.383,27.167c2.034,2.469,1.763,5.284-0.707,7.319l-96.008,79.102
		c-2.47,2.035-5.285,1.763-7.32-0.706L669.031,797.017c-2.035-2.47-1.763-5.285,0.707-7.32l96.317-79.357
		c2.47-2.035,5.285-1.763,7.32,0.707L795.757,738.213z"/>
	<path d="M1353.223,577.868l-44.73-159.027c-0.859-3.083,0.531-5.546,3.613-6.405l35.834-9.985c3.083-0.859,5.546,0.531,6.405,3.613
		l76.019,272.803c0.859,3.082-0.531,5.545-3.614,6.404l-34.293,9.556c-2.311,0.644-4.175-0.082-5.483-1.794l-112.696-142.164
		l45.115,158.921c0.859,3.082-0.531,5.545-3.614,6.404l-36.604,10.2c-3.083,0.859-5.546-0.531-6.405-3.612l-76.405-272.695
		c-0.859-3.083,0.531-5.546,3.613-6.405l35.063-9.771c2.312-0.644,4.175,0.082,5.483,1.794L1353.223,577.868z"/>
	<path d="M1645.614,640.48c0.155,3.195-1.746,5.29-4.943,5.445l-37.955,1.838c-3.196,0.155-5.291-1.746-5.446-4.942l-13.698-282.865
		c-0.155-3.196,1.746-5.291,4.943-5.446l37.955-1.838c3.196-0.155,5.291,1.746,5.446,4.943L1645.614,640.48z"/>
	<path d="M2005.388,362.565c4.357,0.615,5.947,3.667,3.747,7.8l-123.937,225.699l84.024,11.448c3.169,0.447,4.87,2.707,4.423,5.876
		l-4.972,35.251c-0.447,3.168-2.707,4.869-5.875,4.422l-140.606-19.833c-4.356-0.614-5.946-3.666-3.747-7.799l123.145-225.81
		l-83.968-11.844c-3.168-0.447-4.869-2.707-4.422-5.875l4.916-34.854c0.447-3.169,2.707-4.87,5.875-4.423L2005.388,362.565z"/>
	<path d="M2233.111,729.14c-2.573-1.106-3.778-3.367-3.197-5.729l12.518-59.493l-44.831-19.276l-34.566,50.013
		c-1.315,2.046-3.785,2.727-6.357,1.621l-35.277-15.168c-3.675-1.58-4.564-4.575-2.249-7.934l169.189-235.517
		c1.316-2.047,3.785-2.727,5.99-1.779l33.439,14.378c2.205,0.948,3.41,3.208,2.829,5.571l-54.907,284.656
		c-0.844,3.991-3.63,5.406-7.304,3.826L2233.111,729.14z M2224.957,606.333l25.723,11.06l13.418-65.636L2224.957,606.333z"/>
	<path d="M2639.174,611.818c1.56,1.251,2.37,3.439,1.742,5.5l-46.208,138.811l125.778-74.997c1.876-1.059,4.187-0.744,5.747,0.507
		l28.083,22.523c2.497,2.002,2.805,4.814,0.803,7.31l-177.179,220.924c-2.001,2.496-4.813,2.805-7.31,0.802l-29.02-23.273
		c-2.497-2.002-2.805-4.814-0.804-7.309l93.784-117.577l-66.765,39.774c-1.875,1.06-4.187,0.745-5.747-0.506l-26.523-21.271
		c-1.56-1.251-2.37-3.439-1.743-5.5l24.328-73.808l-94.095,117.327c-2.002,2.496-4.813,2.805-7.31,0.803l-29.644-23.774
		c-2.496-2.002-2.805-4.814-0.804-7.309l177.179-220.924c2.002-2.496,4.813-2.805,7.31-0.803L2639.174,611.818z"/>
	<path d="M2745.298,1093.268c-2.544,1.939-5.347,1.561-7.287-0.983l-23.035-30.222c-1.939-2.544-1.561-5.347,0.983-7.287
		l225.231-171.671c2.545-1.94,5.348-1.562,7.288,0.983l23.035,30.222c1.939,2.544,1.561,5.347-0.984,7.287L2745.298,1093.268z"/>
	<path d="M2901.658,1345.256c-1.156-2.551-0.525-5.033,1.496-6.388l49.325-35.541l-20.151-44.444l-59.236,13.682
		c-2.351,0.626-4.634-0.534-5.79-3.084l-15.857-34.973c-1.652-3.643-0.292-6.456,3.682-7.379l283.69-60.114
		c2.351-0.626,4.634,0.534,5.625,2.72l15.031,33.151c0.991,2.186,0.36,4.668-1.661,6.023l-232.32,173.411
		c-3.313,2.381-6.324,1.551-7.976-2.092L2901.658,1345.256z M2978.351,1248.995l11.563,25.501l54.129-39.475L2978.351,1248.995z"/>
</g>
<g>
	<path d="M1061.062,2872.993c-1.401-0.773-1.793-2.131-1.02-3.532l68.232-124.074c0.773-1.4,2.131-1.793,3.532-1.02l54.81,30.242
		c1.401,0.773,1.793,2.132,1.02,3.532l-8.696,15.76c-0.773,1.401-2.131,1.793-3.532,1.02l-35.88-20.255l-18.938,34.321l25.916,14.3
		c1.401,0.773,1.794,2.132,1.021,3.533l-8.503,15.41c-0.773,1.401-2.132,1.794-3.533,1.021l-25.916-14.3l-28.696,52.007
		c-0.773,1.4-2.131,1.793-3.532,1.02L1061.062,2872.993z"/>
	<path d="M1187.62,2902.821l28.168-77.647c5.388-14.853,20.313-26.671,39.301-19.782l14.853,5.388
		c19.177,6.957,22.677,25.459,17.289,40.311l-28.168,77.647c-5.456,15.041-20.006,26.995-39.182,20.038l-14.853-5.388
		C1186.04,2936.5,1182.164,2917.862,1187.62,2902.821z M1211.766,2906.05c-3.342,9.211-1.527,14.764,8.438,18.379
		c11.844,4.297,14.355,2.655,18.448-8.625l24.554-67.684c4.092-11.28,3.218-14.15-8.627-18.447
		c-9.964-3.615-14.849-0.706-18.259,8.694L1211.766,2906.05z"/>
	<path d="M1354.49,3005.156l-15.052-5.427c-19.002-6.851-22.659-25.602-17.301-40.465l38.173-105.292
		c0.542-1.505,1.822-2.106,3.327-1.564l17.497,6.308c1.505,0.542,2.106,1.823,1.564,3.327l-36.409,100.401
		c-3.323,9.218-1.497,14.767,8.474,18.362c11.853,4.273,14.361,2.627,18.43-8.662l36.221-100.469
		c0.543-1.505,1.822-2.106,3.327-1.564l17.497,6.308c1.505,0.542,2.106,1.822,1.564,3.327l-38.172,105.292
		C1388.274,2999.903,1373.493,3012.007,1354.49,3005.156z"/>
	<path d="M1535.907,2990.11l15.928-81.049c0.312-1.569,1.488-2.354,3.058-2.042l18.242,3.631c1.569,0.313,2.354,1.488,2.042,3.057
		l-27.642,138.874c-0.312,1.569-1.488,2.354-3.057,2.042l-17.457-3.475c-1.177-0.234-1.844-0.979-2.042-2.038l-18.202-88.862
		l-15.732,81.088c-0.312,1.569-1.488,2.354-3.058,2.042l-18.634-3.709c-1.57-0.313-2.355-1.489-2.043-3.057l27.445-138.913
		c0.312-1.569,1.488-2.354,3.058-2.042l17.849,3.553c1.177,0.234,1.844,0.979,2.042,2.037L1535.907,2990.11z"/>
	<path d="M1648.745,2925.618c14.8,0,29.4-0.199,44.2-0.199c14.799,0,24.999,11.799,24.999,24.399v97.999
		c0,12.6-10.2,24.398-24.999,24.398c-14.8,0-29.4-0.199-44.2-0.399h-1.199c-0.801,0-1.4-0.601-1.4-1.399v-143.599
		c0-0.6,0.6-1.2,1.4-1.2H1648.745z M1694.345,2954.618c0-3.4-2.8-6.2-6-6.2h-18.6v100.799h18.6c3.2,0,6-3,6-6.2V2954.618z"/>
	<path d="M1866.004,3074.542c-1.395,0.124-2.462-0.586-2.766-1.763l-8.604-29.155l-24.304,2.151l-3.349,30.213
		c-0.094,1.212-1.019,2.098-2.414,2.221l-19.124,1.693c-1.992,0.176-3.094-0.931-2.873-2.958l18.596-143.797
		c0.094-1.213,1.019-2.098,2.214-2.204l18.129-1.604c1.195-0.106,2.262,0.603,2.566,1.781l43.362,138.313
		c0.575,1.957-0.315,3.241-2.307,3.417L1866.004,3074.542z M1833.282,3022.426l13.946-1.234l-9.665-32.073L1833.282,3022.426z"/>
	<path d="M2018.05,2923.712c0.359,1.559-0.39,2.758-1.949,3.117l-25.529,5.889l27.287,118.292c0.36,1.559-0.39,2.758-1.95,3.118
		l-18.124,4.181c-1.559,0.36-2.758-0.39-3.117-1.949l-27.288-118.292l-25.634,6.324c-1.56,0.36-2.759-0.39-3.118-1.948
		l-4.046-17.539c-0.359-1.559,0.39-2.758,1.95-3.118l74.443-17.173c1.559-0.36,2.758,0.39,3.117,1.949L2018.05,2923.712z"/>
	<path d="M2142.826,3022.164c0.514,1.515-0.111,2.783-1.626,3.297l-17.992,6.107c-1.515,0.514-2.783-0.111-3.297-1.626
		l-45.514-134.083c-0.514-1.515,0.111-2.783,1.626-3.297l17.992-6.107c1.515-0.514,2.783,0.111,3.297,1.626L2142.826,3022.164z"/>
	<path d="M2274.257,2978.561l-14.957,5.092c-19.311,6.574-33.619-5.667-38.775-20.814l-26.618-78.192
		c-5.092-14.957-1.225-33.385,18.086-39.959l14.957-5.092c19.123-6.51,33.809,5.603,38.901,20.56l26.619,78.192
		C2297.625,2953.494,2293.379,2972.051,2274.257,2978.561z M2245.06,2872.936c-3.222-9.466-8.049-12.471-18.083-9.055
		c-11.927,4.06-12.858,6.913-8.991,18.271l23.203,68.159c3.867,11.36,6.344,13.051,18.272,8.991
		c10.034-3.416,11.96-8.931,8.802-18.207L2245.06,2872.936z"/>
	<path d="M2409.677,2844.645l-40.638-71.911c-0.784-1.395-0.402-2.756,0.993-3.54l16.215-9.112c1.395-0.784,2.757-0.402,3.541,0.992
		l69.366,123.444c0.784,1.395,0.402,2.756-0.994,3.54l-15.518,8.72c-1.045,0.587-2.037,0.457-2.875-0.219l-71.64-55.637
		l40.812,71.813c0.784,1.395,0.402,2.756-0.993,3.54l-16.564,9.308c-1.395,0.783-2.756,0.402-3.54-0.993l-69.54-123.345
		c-0.784-1.395-0.402-2.756,0.993-3.54l15.867-8.916c1.046-0.588,2.037-0.457,2.875,0.219L2409.677,2844.645z"/>
</g>
<g>
</g>
<g>
</g>
<g>
</g>
<g>
</g>
<g>
</g>
<g>
</g>
</svg>
