<?xml version="1.0" encoding="utf-8"?>
<!-- Generator: Adobe Illustrator 16.0.0, SVG Export Plug-In . SVG Version: 6.00 Build 0)  -->
<!DOCTYPE svg PUBLIC "-//W3C//DTD SVG 1.1//EN" "http://www.w3.org/Graphics/SVG/1.1/DTD/svg11.dtd">
<svg version="1.1" id="Capa_1" xmlns="http://www.w3.org/2000/svg" xmlns:xlink="http://www.w3.org/1999/xlink" x="0px" y="0px"
	 width="512px" height="512px" viewBox="0 0 512 512" enable-background="new 0 0 512 512" xml:space="preserve">
<g>
	<g>
		<path fill="#C1BFBF" d="M66.626,23.374C60.579,17.327,52.552,14,44,14s-16.579,3.327-22.626,9.374C15.327,29.421,12,37.448,12,46
			s3.327,16.579,9.374,22.626C27.421,74.673,35.448,78,44,78s16.579-3.327,22.626-9.374C72.673,62.579,76,54.552,76,46
			S72.673,29.421,66.626,23.374z M64.054,66.054c-5.36,5.36-12.484,8.31-20.054,8.31c-7.569,0-14.693-2.949-20.054-8.31
			c-11.058-11.057-11.058-29.05,0-40.107c5.36-5.36,12.485-8.31,20.054-8.31c7.569,0,14.693,2.949,20.054,8.31
			C75.111,37.003,75.111,54.997,64.054,66.054z"/>
		<path fill="#C1BFBF" d="M58.101,31.899c-0.714-0.714-1.859-0.714-2.572,0L44,43.428L32.471,31.899
			c-0.714-0.714-1.858-0.714-2.572,0s-0.714,1.859,0,2.572L41.428,46L29.899,57.529c-0.714,0.713-0.714,1.858,0,2.572
			c0.35,0.35,0.822,0.539,1.279,0.539c0.458,0,0.93-0.175,1.28-0.539l11.528-11.529l11.529,11.529
			c0.35,0.35,0.822,0.539,1.279,0.539c0.472,0,0.929-0.175,1.28-0.539c0.714-0.714,0.714-1.859,0-2.572L46.572,46l11.529-11.529
			C58.815,33.758,58.815,32.613,58.101,31.899z"/>
	</g>
</g>
</svg>
