<?xml version="1.0" encoding="utf-8"?>
<!-- Generator: Adobe Illustrator 16.0.0, SVG Export Plug-In . SVG Version: 6.00 Build 0)  -->
<!DOCTYPE svg PUBLIC "-//W3C//DTD SVG 1.1//EN" "http://www.w3.org/Graphics/SVG/1.1/DTD/svg11.dtd">
<svg version="1.1" id="Layer_1" xmlns="http://www.w3.org/2000/svg" xmlns:xlink="http://www.w3.org/1999/xlink" x="0px" y="0px"
	 width="850.885px" height="108.647px" viewBox="0 0 850.885 108.647" enable-background="new 0 0 850.885 108.647"
	 xml:space="preserve">
<g>
	<g>
		<path fill-rule="evenodd" clip-rule="evenodd" fill="#FFFFFF" d="M80.593,43.985c0-13.163-0.005-26.327,0.007-39.491
			c0.002-3.992,0.321-4.288,4.359-4.288c1.521,0,3.039,0.035,4.558,0.014c2.122-0.03,3.152,1.09,3.121,3.111
			c-0.085,5.563,0.319,11.134-0.321,16.688c-0.136,1.168-0.116,2.358-0.119,3.537c-0.04,26.835-0.073,53.669-0.111,80.504
			c-0.005,4.308-0.117,4.021-4.403,4.479c-5.608,0.6-9.056-1.309-12.415-6.076C63.486,85.739,51.075,69.459,38.923,52.995
			c-8.15-11.042-16.264-22.111-24.4-33.164c-0.422-0.572-0.673-1.66-1.583-1.301c-0.81,0.318-0.428,1.35-0.436,2.064
			c-0.145,11.386-0.096,22.778-0.462,34.158c-0.178,5.562-0.294,11.12-0.407,16.682c-0.051,2.385,0.844,3.288,3.273,3.258
			c7.425-0.096,14.852-0.025,22.276,0.009c3.057,0.013,3.316,0.288,3.339,3.333c0.015,2.194-0.021,4.389-0.02,6.582
			c0,1.652-0.737,2.479-2.461,2.457c-11.81-0.147-23.618-0.278-35.429-0.387c-1.826-0.018-2.611-0.908-2.588-2.654
			C0.17,72.899-0.086,61.767,0.322,50.63C0.688,40.685,0.5,30.718,0.546,20.762C0.57,15.022,0.554,9.285,0.588,3.547
			c0.019-3.093,0.385-3.438,3.539-3.476c2.11-0.025,4.236,0.17,6.326-0.031c2.748-0.266,4.508,0.79,6.141,2.998
			C33.363,25.71,50.231,48.31,67.056,70.94c3.461,4.659,6.809,9.402,10.309,14.029c0.595,0.783,1.002,2.391,2.314,1.953
			c1.257-0.422,0.771-1.905,0.774-2.938c0.053-10.547,0.059-21.097,0.075-31.645c0.004-2.785,0-5.57,0-8.355
			C80.551,43.985,80.572,43.985,80.593,43.985z"/>
		<path fill-rule="evenodd" clip-rule="evenodd" fill="#FFFFFF" d="M100.251,77.608c0-9.11-0.011-18.223,0.004-27.334
			c0.004-3.447,0.475-3.911,3.995-3.914c14.004-0.017,28.01,0.025,42.015-0.032c7.51-0.031,12.853-3.955,15.876-11.428
			c2.407-5.952,0.662-13.902-4.077-18.472c-3.631-3.498-8.146-4.611-12.999-4.629c-11.137-0.041-22.273-0.007-33.412-0.018
			c-3.469-0.002-3.734-0.283-3.755-3.742c-0.011-1.771,0.05-3.545-0.008-5.314c-0.061-1.824,0.753-2.613,2.57-2.584
			c2.867,0.047,5.735,0,8.604,0.002c9.787,0.01,19.574-0.06,29.36,0.059c11.759,0.143,22.778,8.938,25.741,20.309
			c2.842,10.908,0.415,20.469-7.285,28.675c-1.129,1.206-1.216,1.931,0.276,2.961c7.487,5.171,12.372,12.232,13.762,21.226
			c1.212,7.859-0.872,15.216-5.388,21.778c-6.066,8.813-14.412,13.303-25.222,13.243c-15.522-0.084-31.046-0.013-46.569-0.021
			c-3.252,0-3.478-0.219-3.484-3.428C100.239,95.834,100.251,86.722,100.251,77.608z M133.297,96.432
			c5.903,0,11.806,0.009,17.708-0.005c2.03-0.004,4.038-0.18,5.913-1.071c7.533-3.583,11.476-9.577,11.952-17.87
			c0.561-9.713-8.146-19.121-17.882-19.184c-12.059-0.078-24.118,0.016-36.177-0.053c-2.175-0.012-2.992,0.734-2.979,2.937
			c0.071,10.793,0.073,21.589,0,32.381c-0.014,2.23,0.84,2.933,2.996,2.899C120.983,96.368,127.14,96.432,133.297,96.432z"/>
		<path fill-rule="evenodd" clip-rule="evenodd" fill="#FFFFFF" d="M27.073,96.347c7.848,0,15.694-0.01,23.542,0.006
			c3.08,0.009,3.451,0.397,3.483,3.543c0.019,1.854-0.008,3.713-0.047,5.567c-0.042,1.907-0.881,2.929-2.954,2.925
			c-16.115-0.033-32.23-0.033-48.345,0.004c-1.931,0.004-2.81-0.731-2.75-2.68c0.061-1.938-0.007-3.881,0.022-5.821
			c0.045-3.132,0.43-3.545,3.504-3.554c7.849-0.021,15.696-0.006,23.544-0.006C27.073,96.337,27.073,96.341,27.073,96.347z"/>
	</g>
	<g>
		<g>
			<path fill="#FFFFFF" d="M204.451,66.409c-0.379-0.377-0.566-0.88-0.566-1.51V3.113c0-0.626,0.188-1.146,0.566-1.557
				c0.377-0.408,0.881-0.613,1.508-0.613h1.982c0.817,0,1.477,0.378,1.981,1.132l34.807,53.201V3.113
				c0-0.626,0.189-1.146,0.566-1.557c0.377-0.408,0.879-0.613,1.508-0.613h1.7c0.69,0,1.226,0.189,1.603,0.567
				c0.377,0.377,0.566,0.911,0.566,1.603v61.691c0,0.63-0.189,1.149-0.566,1.559c-0.377,0.406-0.882,0.61-1.51,0.61h-2.075
				c-0.816,0-1.479-0.377-1.981-1.131l-34.714-53.014v52.07c0,0.63-0.204,1.133-0.61,1.51c-0.411,0.377-0.931,0.564-1.559,0.564
				h-1.698C205.332,66.974,204.828,66.786,204.451,66.409z"/>
			<path fill="#FFFFFF" d="M262.367,66.409c-0.376-0.377-0.565-0.815-0.565-1.322l0.189-1.036l23.865-61.22
				c0.502-1.26,1.413-1.888,2.736-1.888h3.205c1.322,0,2.232,0.628,2.738,1.888l23.863,61.22l0.189,1.036
				c0,0.507-0.189,0.945-0.567,1.322c-0.377,0.377-0.816,0.564-1.32,0.564h-1.887c-0.564,0-1.021-0.155-1.367-0.472
				c-0.346-0.313-0.583-0.626-0.708-0.941l-5.849-15.093H273.5l-5.851,15.093c-0.127,0.315-0.36,0.628-0.706,0.941
				c-0.348,0.316-0.803,0.472-1.367,0.472h-1.887C263.184,66.974,262.746,66.786,262.367,66.409z M275.762,44.807h28.867
				L290.195,7.642L275.762,44.807z"/>
			<path fill="#FFFFFF" d="M330.286,66.409c-0.379-0.377-0.568-0.88-0.568-1.51V3.113c0-0.626,0.189-1.146,0.568-1.557
				c0.375-0.408,0.878-0.613,1.508-0.613h36.79c0.689,0,1.227,0.189,1.602,0.567c0.379,0.377,0.568,0.911,0.568,1.603v1.415
				c0,0.628-0.206,1.131-0.615,1.509c-0.41,0.379-0.927,0.567-1.555,0.567h-32.923v24.053h30.847c0.69,0,1.226,0.189,1.603,0.566
				c0.377,0.379,0.566,0.912,0.566,1.604v1.415c0,0.628-0.206,1.131-0.612,1.508c-0.411,0.379-0.929,0.568-1.557,0.568h-30.847
				v24.998h33.676c0.692,0,1.228,0.188,1.604,0.564s0.564,0.912,0.564,1.605v1.413c0,0.63-0.204,1.133-0.611,1.51
				c-0.41,0.377-0.929,0.564-1.558,0.564h-37.543C331.164,66.974,330.661,66.786,330.286,66.409z"/>
			<path fill="#FFFFFF" d="M386.129,66.409c-0.379-0.377-0.566-0.88-0.566-1.51V3.113c0-0.626,0.188-1.146,0.566-1.557
				c0.377-0.408,0.878-0.613,1.508-0.613h36.79c0.691,0,1.226,0.189,1.604,0.567c0.377,0.377,0.566,0.911,0.566,1.603v1.415
				c0,0.628-0.206,1.131-0.613,1.509c-0.41,0.379-0.929,0.567-1.557,0.567h-32.923v24.053h30.847c0.69,0,1.226,0.189,1.604,0.566
				c0.375,0.379,0.564,0.912,0.564,1.604v1.415c0,0.628-0.204,1.131-0.612,1.508c-0.409,0.379-0.929,0.568-1.557,0.568h-30.847
				v24.998h33.677c0.691,0,1.227,0.188,1.605,0.564c0.375,0.377,0.564,0.912,0.564,1.605v1.413c0,0.63-0.204,1.133-0.613,1.51
				c-0.408,0.377-0.929,0.564-1.557,0.564h-37.544C387.007,66.974,386.506,66.786,386.129,66.409z"/>
			<path fill="#FFFFFF" d="M442.018,66.409c-0.41-0.377-0.614-0.88-0.614-1.51V3.113c0-0.691,0.204-1.226,0.614-1.603
				c0.407-0.378,0.927-0.567,1.555-0.567h2.359c0.943,0,1.604,0.411,1.981,1.229l21.413,41.693l21.506-41.693
				c0.44-0.817,1.102-1.229,1.982-1.229h2.264c0.689,0,1.226,0.189,1.603,0.567c0.378,0.377,0.567,0.911,0.567,1.603v61.786
				c0,0.63-0.207,1.133-0.615,1.51s-0.927,0.564-1.555,0.564h-1.699c-0.628,0-1.13-0.188-1.509-0.564
				c-0.377-0.377-0.564-0.88-0.564-1.51V13.772l-18.02,35.468c-0.564,1.259-1.542,1.887-2.924,1.887h-2.074
				c-1.384,0-2.357-0.628-2.926-1.887l-18.016-35.468v51.127c0,0.63-0.189,1.133-0.566,1.51s-0.881,0.564-1.509,0.564h-1.699
				C442.944,66.974,442.425,66.786,442.018,66.409z"/>
			<path fill="#FFFFFF" d="M539.885,66.409c-0.377-0.377-0.566-0.88-0.566-1.51V3.113c0-0.626,0.189-1.146,0.566-1.557
				c0.377-0.408,0.88-0.613,1.51-0.613h24.617c6.226,0,10.943,1.605,14.151,4.811c3.205,3.208,4.811,7.233,4.811,12.077
				c0,3.709-0.817,6.759-2.454,9.147c-1.634,2.39-3.586,4.121-5.849,5.189c2.704,1.384,4.983,3.487,6.839,6.32
				c1.855,2.828,2.782,6.1,2.782,9.811c0,3.269-0.769,6.335-2.309,9.195c-1.542,2.862-3.791,5.158-6.744,6.885
				c-2.957,1.731-6.48,2.595-10.568,2.595h-25.276C540.765,66.974,540.262,66.786,539.885,66.409z M564.788,29.619
				c4.65,0,8.188-1.02,10.609-3.063c2.422-2.045,3.633-4.955,3.633-8.726c0-3.711-1.211-6.511-3.633-8.397
				c-2.421-1.887-5.959-2.829-10.609-2.829h-19.526v23.015H564.788z M565.729,61.316c4.592,0,8.174-1.211,10.756-3.633
				c2.576-2.42,3.865-5.55,3.865-9.385c0-3.9-1.289-7.043-3.865-9.434c-2.582-2.391-6.164-3.587-10.756-3.587h-20.468v26.038
				H565.729z"/>
			<path fill="#FFFFFF" d="M601.479,66.409c-0.377-0.377-0.564-0.88-0.564-1.51V3.113c0-0.626,0.188-1.146,0.564-1.557
				c0.377-0.408,0.881-0.613,1.51-0.613h21.979c6.79,0,12.105,1.605,15.941,4.811c3.835,3.208,5.754,7.957,5.754,14.246
				c0,4.967-1.226,8.977-3.68,12.024c-2.451,3.054-5.975,5.111-10.563,6.18l15.186,25.847c0.188,0.377,0.282,0.725,0.282,1.036
				c0,0.507-0.189,0.945-0.566,1.322c-0.375,0.377-0.817,0.564-1.32,0.564h-1.131c-0.944,0-1.649-0.204-2.123-0.61
				c-0.472-0.409-0.959-1.056-1.462-1.936L626.29,39.053h-19.434v25.847c0,0.63-0.204,1.133-0.613,1.51
				c-0.41,0.377-0.928,0.564-1.558,0.564h-1.696C602.36,66.974,601.856,66.786,601.479,66.409z M624.494,33.394
				c5.472,0,9.543-1.114,12.218-3.349c2.672-2.231,4.01-5.58,4.01-10.045s-1.338-7.815-4.01-10.048
				c-2.675-2.23-6.746-3.348-12.218-3.348h-17.638v26.789H624.494z"/>
			<path fill="#FFFFFF" d="M661.853,66.409c-0.379-0.377-0.566-0.88-0.566-1.51V3.019c0-0.628,0.188-1.131,0.566-1.508
				c0.377-0.378,0.88-0.567,1.508-0.567h1.793c0.627,0,1.133,0.189,1.51,0.567c0.377,0.377,0.564,0.88,0.564,1.508v61.881
				c0,0.63-0.188,1.133-0.564,1.51s-0.883,0.564-1.51,0.564h-1.793C662.732,66.974,662.229,66.786,661.853,66.409z"/>
			<path fill="#FFFFFF" d="M691.987,65.513c-3.618-1.605-6.382-3.692-8.3-6.274c-1.919-2.578-2.94-5.342-3.064-8.301
				c0-0.501,0.188-0.941,0.564-1.318c0.377-0.379,0.851-0.568,1.415-0.568h1.887c1.133,0,1.822,0.632,2.075,1.887
				c0.438,3.021,2.169,5.661,5.189,7.924c3.016,2.264,7.354,3.396,13.016,3.396c5.976,0,10.424-1.084,13.347-3.254
				c2.926-2.169,4.388-5.204,4.388-9.103c0-2.389-0.708-4.354-2.121-5.897c-1.415-1.539-3.476-2.89-6.18-4.054
				c-2.706-1.163-6.79-2.625-12.262-4.386c-4.846-1.573-8.632-3.114-11.369-4.625c-2.733-1.508-4.762-3.363-6.083-5.564
				c-1.322-2.199-1.981-4.998-1.981-8.395c0-3.208,0.863-6.098,2.595-8.678c1.729-2.578,4.229-4.608,7.498-6.085
				C695.871,0.739,699.771,0,704.298,0c4.653,0,8.648,0.834,11.98,2.5s5.849,3.772,7.546,6.319c1.699,2.548,2.607,5.111,2.736,7.689
				c0,0.505-0.175,0.943-0.521,1.322c-0.346,0.377-0.832,0.564-1.462,0.564h-1.887c-0.438,0-0.881-0.144-1.318-0.426
				c-0.442-0.282-0.695-0.769-0.757-1.461c-0.377-3.144-2.06-5.738-5.046-7.783c-2.988-2.043-6.744-3.066-11.272-3.066
				c-4.842,0-8.694,0.945-11.555,2.831c-2.863,1.887-4.292,4.716-4.292,8.49c0,2.451,0.643,4.481,1.936,6.084
				c1.285,1.604,3.221,2.988,5.801,4.151c2.577,1.163,6.38,2.562,11.413,4.195c5.154,1.637,9.181,3.208,12.074,4.718
				c2.891,1.509,5.076,3.334,6.557,5.47c1.477,2.14,2.216,4.905,2.216,8.303c0,5.657-2.108,10.078-6.32,13.254
				c-4.213,3.176-9.998,4.763-17.357,4.763C699.864,67.918,695.604,67.117,691.987,65.513z"/>
			<path fill="#FFFFFF" d="M745.991,60.986c-4.09-4.625-6.29-10.834-6.603-18.631c-0.064-1.698-0.095-4.466-0.095-8.301
				c0-3.9,0.03-6.729,0.095-8.492c0.313-7.795,2.513-14.006,6.603-18.627C750.076,2.311,756.211,0,764.385,0
				c5.598,0,10.251,1.023,13.96,3.064c3.711,2.047,6.463,4.625,8.256,7.736c1.792,3.113,2.782,6.306,2.97,9.576v0.188
				c0,0.504-0.188,0.912-0.564,1.228c-0.377,0.314-0.851,0.471-1.415,0.471h-1.888c-1.133,0-1.825-0.661-2.074-1.98
				c-1.196-5.346-3.366-9.117-6.509-11.32c-3.146-2.201-7.392-3.303-12.735-3.303c-5.912,0-10.503,1.666-13.772,5
				c-3.271,3.334-5.031,8.461-5.284,15.377c-0.061,1.696-0.091,4.308-0.091,7.827c0,3.523,0.03,6.196,0.091,8.02
				c0.253,6.919,2.014,12.043,5.284,15.376c3.27,3.333,7.86,4.999,13.772,4.999c5.344,0,9.59-1.099,12.735-3.302
				c3.143-2.199,5.313-5.974,6.509-11.32c0.249-1.319,0.941-1.979,2.074-1.979h1.888c0.564,0,1.051,0.173,1.461,0.517
				c0.409,0.348,0.58,0.803,0.519,1.37c-0.188,3.268-1.178,6.46-2.97,9.573c-1.793,3.114-4.545,5.69-8.256,7.735
				c-3.709,2.044-8.362,3.065-13.96,3.065C756.211,67.918,750.076,65.607,745.991,60.986z"/>
			<path fill="#FFFFFF" d="M800.891,41.883c-0.064-1.887-0.095-4.527-0.095-7.923c0-3.397,0.03-6.036,0.095-7.924
				c0.249-8.553,2.578-15.031,6.979-19.432C812.269,2.201,818.246,0,825.792,0c7.547,0,13.521,2.201,17.922,6.604
				c4.403,4.4,6.729,10.879,6.981,19.432c0.126,3.774,0.189,6.414,0.189,7.924c0,1.508-0.063,4.151-0.189,7.923
				c-0.442,17.355-8.742,26.035-24.903,26.035C809.63,67.918,801.329,59.238,800.891,41.883z M839.33,57.117
				c3.36-3.425,5.169-8.663,5.424-15.706c0.122-3.773,0.188-6.255,0.188-7.451c0-1.194-0.065-3.68-0.188-7.452
				c-0.255-7.043-2.077-12.278-5.472-15.707c-3.397-3.427-7.893-5.142-13.49-5.142c-5.596,0-10.093,1.715-13.489,5.142
				c-3.396,3.429-5.22,8.664-5.471,15.707c-0.064,1.886-0.097,4.371-0.097,7.452c0,3.079,0.032,5.564,0.097,7.451
				c0.251,7.043,2.061,12.281,5.424,15.706c3.363,3.427,7.875,5.141,13.536,5.141C831.451,62.258,835.963,60.544,839.33,57.117z"/>
		</g>
		<g>
			<path fill="#FFFFFF" d="M208.047,102.797l-3.493-17.411l-0.054-0.301c0-0.142,0.054-0.27,0.161-0.377
				c0.107-0.109,0.234-0.163,0.379-0.163h1.326c0.381,0,0.596,0.153,0.652,0.46l2.787,14.137l3.006-9.749
				c0.109-0.434,0.388-0.648,0.841-0.648h0.947c0.431,0,0.721,0.215,0.865,0.648l2.979,9.749l2.79-14.137
				c0.052-0.307,0.278-0.46,0.676-0.46h1.3c0.144,0,0.271,0.054,0.379,0.163c0.108,0.107,0.164,0.235,0.164,0.377
				c0,0.109-0.012,0.21-0.03,0.301l-3.518,17.411c-0.093,0.47-0.371,0.704-0.84,0.704h-0.975c-0.451,0-0.75-0.226-0.894-0.677
				l-3.357-10.425l-3.387,10.425c-0.126,0.451-0.414,0.677-0.867,0.677h-1.001C208.434,103.501,208.155,103.267,208.047,102.797z"/>
			<path fill="#FFFFFF" d="M226.933,86.591c-0.117-0.118-0.175-0.266-0.175-0.449v-1.407c0-0.181,0.058-0.333,0.175-0.461
				c0.119-0.125,0.268-0.189,0.445-0.189h1.602c0.178,0,0.332,0.064,0.457,0.189c0.128,0.128,0.191,0.28,0.191,0.461v1.407
				c0,0.184-0.063,0.331-0.191,0.449c-0.125,0.115-0.279,0.175-0.457,0.175h-1.602C227.2,86.766,227.052,86.706,226.933,86.591z
				 M227.151,103.326c-0.118-0.119-0.178-0.266-0.178-0.448V90.042c0-0.18,0.06-0.327,0.178-0.445
				c0.115-0.117,0.264-0.177,0.446-0.177h1.19c0.18,0,0.329,0.06,0.447,0.177c0.115,0.118,0.175,0.266,0.175,0.445v12.836
				c0,0.183-0.06,0.329-0.175,0.448c-0.118,0.115-0.268,0.175-0.447,0.175h-1.19C227.415,103.501,227.267,103.441,227.151,103.326z"
				/>
			<path fill="#FFFFFF" d="M234.692,98.763v-7.259h-2.14c-0.182,0-0.325-0.054-0.435-0.161c-0.107-0.108-0.16-0.253-0.16-0.436
				v-0.865c0-0.18,0.053-0.327,0.16-0.445c0.109-0.117,0.253-0.177,0.435-0.177h2.14v-4.521c0-0.183,0.054-0.331,0.162-0.449
				c0.109-0.117,0.252-0.177,0.433-0.177h1.192c0.18,0,0.328,0.06,0.445,0.177c0.119,0.118,0.179,0.267,0.179,0.449v4.521h3.356
				c0.18,0,0.328,0.06,0.447,0.177c0.115,0.118,0.175,0.266,0.175,0.445v0.865c0,0.183-0.06,0.327-0.175,0.436
				c-0.119,0.107-0.268,0.161-0.447,0.161h-3.356v7.069c0,0.921,0.148,1.613,0.445,2.084c0.298,0.47,0.809,0.705,1.53,0.705h1.651
				c0.181,0,0.325,0.06,0.433,0.175c0.108,0.117,0.164,0.266,0.164,0.448v0.893c0,0.183-0.056,0.329-0.164,0.448
				c-0.107,0.115-0.252,0.175-0.433,0.175h-1.843C236.091,103.501,234.692,101.922,234.692,98.763z"/>
			<path fill="#FFFFFF" d="M244.182,103.326c-0.117-0.119-0.177-0.266-0.177-0.448V84.899c0-0.201,0.06-0.354,0.177-0.461
				c0.117-0.109,0.268-0.165,0.447-0.165h1.245c0.2,0,0.353,0.056,0.46,0.165c0.108,0.106,0.164,0.26,0.164,0.461v6.308
				c0.523-0.669,1.14-1.18,1.854-1.53c0.713-0.352,1.594-0.528,2.641-0.528c1.733,0,3.083,0.558,4.049,1.665
				c0.966,1.11,1.449,2.577,1.449,4.401v7.663c0,0.183-0.06,0.329-0.177,0.448c-0.117,0.115-0.268,0.175-0.447,0.175h-1.272
				c-0.18,0-0.329-0.06-0.445-0.175c-0.117-0.119-0.177-0.266-0.177-0.448v-7.5c0-1.3-0.315-2.313-0.947-3.032
				c-0.634-0.723-1.545-1.083-2.737-1.083c-1.154,0-2.075,0.365-2.761,1.096c-0.687,0.731-1.028,1.738-1.028,3.02v7.5
				c0,0.183-0.06,0.329-0.177,0.448c-0.117,0.115-0.266,0.175-0.447,0.175h-1.245C244.449,103.501,244.299,103.441,244.182,103.326z
				"/>
			<path fill="#FFFFFF" d="M269.61,103.065c-1.094-0.466-1.924-1.086-2.492-1.854c-0.568-0.767-0.873-1.592-0.906-2.478
				c0-0.145,0.054-0.271,0.161-0.379c0.107-0.107,0.243-0.161,0.407-0.161h1.326c0.324,0,0.549,0.18,0.678,0.54
				c0.161,0.76,0.626,1.412,1.395,1.964c0.766,0.549,1.863,0.826,3.289,0.826c1.536,0,2.681-0.271,3.438-0.812
				c0.758-0.543,1.139-1.293,1.139-2.249c0-0.611-0.185-1.119-0.556-1.516c-0.371-0.398-0.921-0.743-1.653-1.042
				c-0.729-0.298-1.827-0.663-3.289-1.099c-1.39-0.396-2.494-0.82-3.317-1.271c-0.82-0.451-1.439-1.007-1.855-1.666
				c-0.414-0.658-0.622-1.493-0.622-2.504c0-0.977,0.262-1.848,0.786-2.613c0.523-0.768,1.281-1.373,2.274-1.814
				c0.992-0.444,2.166-0.665,3.521-0.665c1.407,0,2.614,0.251,3.614,0.746c1.003,0.496,1.764,1.12,2.288,1.867
				c0.523,0.75,0.802,1.503,0.839,2.262c0,0.162-0.054,0.298-0.161,0.407c-0.109,0.105-0.243,0.161-0.407,0.161h-1.354
				c-0.145,0-0.28-0.044-0.407-0.136c-0.126-0.091-0.215-0.225-0.269-0.406c-0.11-0.774-0.543-1.415-1.303-1.922
				c-0.756-0.506-1.705-0.757-2.841-0.757c-1.229,0-2.203,0.24-2.924,0.718c-0.725,0.479-1.085,1.187-1.085,2.126
				c0,0.632,0.167,1.146,0.502,1.542c0.334,0.397,0.849,0.75,1.545,1.057c0.692,0.307,1.709,0.657,3.044,1.057
				c1.534,0.432,2.74,0.866,3.616,1.299c0.875,0.435,1.529,0.971,1.964,1.612c0.433,0.641,0.647,1.465,0.647,2.478
				c0,1.697-0.645,3.02-1.935,3.965c-1.291,0.947-3.039,1.423-5.24,1.423C271.987,103.771,270.702,103.536,269.61,103.065z"/>
			<path fill="#FFFFFF" d="M283.826,86.591c-0.118-0.118-0.176-0.266-0.176-0.449v-1.407c0-0.181,0.058-0.333,0.176-0.461
				c0.117-0.125,0.266-0.189,0.446-0.189h1.597c0.181,0,0.335,0.064,0.461,0.189c0.126,0.128,0.189,0.28,0.189,0.461v1.407
				c0,0.184-0.063,0.331-0.189,0.449c-0.126,0.115-0.28,0.175-0.461,0.175h-1.597C284.092,86.766,283.943,86.706,283.826,86.591z
				 M284.042,103.326c-0.119-0.119-0.175-0.266-0.175-0.448V90.042c0-0.18,0.056-0.327,0.175-0.445
				c0.117-0.117,0.268-0.177,0.447-0.177h1.19c0.183,0,0.331,0.06,0.446,0.177c0.119,0.118,0.178,0.266,0.178,0.445v12.836
				c0,0.183-0.059,0.329-0.178,0.448c-0.115,0.115-0.264,0.175-0.446,0.175h-1.19C284.31,103.501,284.159,103.441,284.042,103.326z"
				/>
			<path fill="#FFFFFF" d="M290.541,103.326c-0.119-0.119-0.177-0.266-0.177-0.448V90.042c0-0.18,0.058-0.327,0.177-0.445
				c0.117-0.117,0.266-0.177,0.447-0.177h1.163c0.198,0,0.353,0.056,0.46,0.161c0.108,0.11,0.164,0.265,0.164,0.461v1.192
				c0.54-0.668,1.168-1.183,1.881-1.543c0.712-0.36,1.602-0.543,2.668-0.543c1.732,0,3.077,0.558,4.035,1.665
				c0.955,1.11,1.435,2.577,1.435,4.401v7.663c0,0.183-0.06,0.329-0.175,0.448c-0.119,0.115-0.268,0.175-0.449,0.175h-1.245
				c-0.182,0-0.33-0.06-0.445-0.175c-0.119-0.119-0.177-0.266-0.177-0.448v-7.5c0-1.3-0.317-2.313-0.949-3.032
				c-0.631-0.723-1.534-1.083-2.706-1.083c-1.157,0-2.078,0.365-2.764,1.096c-0.686,0.731-1.028,1.738-1.028,3.02v7.5
				c0,0.183-0.058,0.329-0.177,0.448c-0.115,0.115-0.266,0.175-0.446,0.175h-1.244C290.807,103.501,290.658,103.441,290.541,103.326
				z"/>
			<path fill="#FFFFFF" d="M307.831,102.134c-1.085-1.093-1.653-2.623-1.707-4.592l-0.028-1.081l0.028-1.083
				c0.054-1.969,0.622-3.499,1.707-4.591c1.082-1.092,2.589-1.639,4.521-1.639c1.3,0,2.397,0.23,3.291,0.691s1.563,1.032,2.004,1.72
				c0.442,0.686,0.682,1.371,0.717,2.058c0.019,0.162-0.039,0.305-0.176,0.435c-0.134,0.125-0.282,0.187-0.446,0.187h-1.192
				c-0.18,0-0.315-0.039-0.404-0.121c-0.092-0.08-0.183-0.23-0.271-0.445c-0.325-0.887-0.772-1.513-1.341-1.882
				c-0.568-0.371-1.285-0.556-2.151-0.556c-1.139,0-2.041,0.352-2.71,1.056c-0.666,0.705-1.028,1.777-1.082,3.224l-0.026,0.947
				l0.026,0.947c0.054,1.445,0.416,2.519,1.082,3.223c0.669,0.702,1.571,1.057,2.71,1.057c0.885,0,1.605-0.186,2.166-0.555
				c0.558-0.372,1.001-0.998,1.326-1.884c0.089-0.216,0.18-0.364,0.271-0.445c0.089-0.084,0.225-0.123,0.404-0.123h1.192
				c0.164,0,0.313,0.063,0.446,0.189c0.137,0.128,0.194,0.271,0.176,0.435c-0.035,0.667-0.274,1.343-0.717,2.028
				c-0.441,0.688-1.11,1.267-2.004,1.732c-0.894,0.471-1.991,0.706-3.291,0.706C310.42,103.771,308.913,103.226,307.831,102.134z"/>
			<path fill="#FFFFFF" d="M322.778,102.054c-1.103-1.148-1.705-2.714-1.813-4.701l-0.029-0.921l0.029-0.892
				c0.107-1.948,0.71-3.501,1.813-4.658c1.1-1.155,2.572-1.733,4.413-1.733c1.985,0,3.525,0.632,4.617,1.895
				c1.093,1.266,1.639,2.979,1.639,5.147v0.486c0,0.18-0.06,0.33-0.175,0.445c-0.119,0.119-0.268,0.179-0.447,0.179h-9.396v0.241
				c0.054,1.176,0.416,2.177,1.083,3.009c0.667,0.829,1.553,1.243,2.654,1.243c0.847,0,1.537-0.166,2.07-0.5
				c0.533-0.332,0.935-0.682,1.206-1.042c0.161-0.218,0.287-0.348,0.379-0.392c0.091-0.047,0.243-0.069,0.46-0.069h1.19
				c0.162,0,0.303,0.045,0.42,0.136c0.117,0.09,0.177,0.208,0.177,0.352c0,0.397-0.243,0.874-0.731,1.436
				c-0.487,0.561-1.178,1.042-2.071,1.446c-0.894,0.409-1.919,0.611-3.074,0.611C325.351,103.771,323.878,103.199,322.778,102.054z
				 M330.984,95.458v-0.08c0-1.265-0.346-2.293-1.029-3.088c-0.687-0.795-1.608-1.191-2.764-1.191c-1.174,0-2.093,0.396-2.762,1.191
				c-0.667,0.795-1.001,1.823-1.001,3.088v0.08H330.984z"/>
			<path fill="#FFFFFF" d="M336.928,103.326c-0.119-0.119-0.179-0.266-0.179-0.448V90.07c0-0.181,0.06-0.335,0.179-0.461
				c0.115-0.124,0.266-0.189,0.446-0.189h1.136c0.199,0,0.357,0.06,0.476,0.177c0.115,0.118,0.175,0.274,0.175,0.474v1.192
				c0.739-1.229,1.995-1.843,3.763-1.843h1.059c0.197,0,0.352,0.056,0.461,0.161c0.107,0.11,0.162,0.265,0.162,0.461v1.001
				c0,0.181-0.055,0.331-0.162,0.45c-0.109,0.115-0.264,0.174-0.461,0.174h-1.545c-0.992,0-1.771,0.288-2.34,0.868
				c-0.57,0.575-0.854,1.361-0.854,2.354v7.988c0,0.183-0.063,0.329-0.189,0.448c-0.126,0.115-0.278,0.175-0.461,0.175h-1.218
				C337.193,103.501,337.043,103.441,336.928,103.326z"/>
			<path fill="#FFFFFF" d="M347.825,102.054c-1.102-1.148-1.705-2.714-1.813-4.701l-0.027-0.921l0.027-0.892
				c0.108-1.948,0.712-3.501,1.813-4.658c1.101-1.155,2.572-1.733,4.414-1.733c1.984,0,3.525,0.632,4.618,1.895
				c1.092,1.266,1.638,2.979,1.638,5.147v0.486c0,0.18-0.06,0.33-0.177,0.445c-0.116,0.119-0.266,0.179-0.447,0.179h-9.395v0.241
				c0.052,1.176,0.414,2.177,1.083,3.009c0.667,0.829,1.551,1.243,2.654,1.243c0.847,0,1.538-0.166,2.069-0.5
				c0.532-0.332,0.936-0.682,1.205-1.042c0.163-0.218,0.288-0.348,0.381-0.392c0.089-0.047,0.241-0.069,0.46-0.069h1.189
				c0.163,0,0.305,0.045,0.42,0.136c0.118,0.09,0.178,0.208,0.178,0.352c0,0.397-0.245,0.874-0.731,1.436
				c-0.487,0.561-1.178,1.042-2.073,1.446c-0.892,0.409-1.917,0.611-3.072,0.611C350.397,103.771,348.926,103.199,347.825,102.054z
				 M356.03,95.458v-0.08c0-1.265-0.344-2.293-1.028-3.088c-0.688-0.795-1.607-1.191-2.763-1.191c-1.174,0-2.095,0.396-2.764,1.191
				c-0.666,0.795-0.999,1.823-0.999,3.088v0.08H356.03z"/>
			<path fill="#FFFFFF" d="M368.975,103.326c-0.108-0.119-0.164-0.266-0.164-0.448V85.169c0-0.181,0.056-0.329,0.164-0.448
				c0.107-0.117,0.252-0.176,0.435-0.176h1.352c0.199,0,0.354,0.054,0.461,0.163c0.107,0.107,0.163,0.262,0.163,0.461v17.709
				c0,0.183-0.06,0.329-0.176,0.448c-0.117,0.115-0.268,0.175-0.448,0.175h-1.352C369.227,103.501,369.082,103.441,368.975,103.326z
				"/>
			<path fill="#FFFFFF" d="M375.975,103.326c-0.119-0.119-0.177-0.266-0.177-0.448V90.042c0-0.18,0.058-0.327,0.177-0.445
				c0.117-0.117,0.266-0.177,0.447-0.177h1.163c0.198,0,0.353,0.056,0.461,0.161c0.107,0.11,0.163,0.265,0.163,0.461v1.192
				c0.54-0.668,1.168-1.183,1.882-1.543c0.711-0.36,1.601-0.543,2.667-0.543c1.732,0,3.077,0.558,4.036,1.665
				c0.954,1.11,1.434,2.577,1.434,4.401v7.663c0,0.183-0.06,0.329-0.175,0.448c-0.119,0.115-0.268,0.175-0.449,0.175h-1.244
				c-0.183,0-0.331-0.06-0.446-0.175c-0.119-0.119-0.177-0.266-0.177-0.448v-7.5c0-1.3-0.317-2.313-0.948-3.032
				c-0.632-0.723-1.534-1.083-2.708-1.083c-1.155,0-2.077,0.365-2.763,1.096c-0.685,0.731-1.028,1.738-1.028,3.02v7.5
				c0,0.183-0.058,0.329-0.177,0.448c-0.117,0.115-0.268,0.175-0.445,0.175h-1.245C376.24,103.501,376.092,103.441,375.975,103.326z
				"/>
			<path fill="#FFFFFF" d="M393.183,98.763v-7.259h-2.14c-0.182,0-0.323-0.054-0.435-0.161c-0.107-0.108-0.159-0.253-0.159-0.436
				v-0.865c0-0.18,0.052-0.327,0.159-0.445c0.111-0.117,0.253-0.177,0.435-0.177h2.14v-4.521c0-0.183,0.056-0.331,0.164-0.449
				c0.107-0.117,0.252-0.177,0.431-0.177h1.192c0.182,0,0.328,0.06,0.445,0.177c0.119,0.118,0.179,0.267,0.179,0.449v4.521h3.358
				c0.178,0,0.326,0.06,0.445,0.177c0.117,0.118,0.177,0.266,0.177,0.445v0.865c0,0.183-0.06,0.327-0.177,0.436
				c-0.119,0.107-0.268,0.161-0.445,0.161h-3.358v7.069c0,0.921,0.148,1.613,0.445,2.084c0.298,0.47,0.809,0.705,1.531,0.705h1.65
				c0.181,0,0.325,0.06,0.433,0.175c0.108,0.117,0.164,0.266,0.164,0.448v0.893c0,0.183-0.056,0.329-0.164,0.448
				c-0.107,0.115-0.252,0.175-0.433,0.175h-1.84C394.583,103.501,393.183,101.922,393.183,98.763z"/>
			<path fill="#FFFFFF" d="M403.636,102.054c-1.104-1.148-1.705-2.714-1.814-4.701l-0.027-0.921l0.027-0.892
				c0.109-1.948,0.711-3.501,1.814-4.658c1.1-1.155,2.572-1.733,4.413-1.733c1.985,0,3.525,0.632,4.617,1.895
				c1.093,1.266,1.639,2.979,1.639,5.147v0.486c0,0.18-0.06,0.33-0.175,0.445c-0.119,0.119-0.268,0.179-0.449,0.179h-9.395v0.241
				c0.054,1.176,0.416,2.177,1.083,3.009c0.666,0.829,1.553,1.243,2.653,1.243c0.848,0,1.538-0.166,2.071-0.5
				c0.533-0.332,0.935-0.682,1.206-1.042c0.161-0.218,0.287-0.348,0.378-0.392c0.09-0.047,0.244-0.069,0.461-0.069h1.19
				c0.162,0,0.303,0.045,0.42,0.136c0.117,0.09,0.177,0.208,0.177,0.352c0,0.397-0.245,0.874-0.732,1.436
				c-0.486,0.561-1.177,1.042-2.07,1.446c-0.894,0.409-1.919,0.611-3.074,0.611C406.208,103.771,404.735,103.199,403.636,102.054z
				 M411.842,95.458v-0.08c0-1.265-0.346-2.293-1.029-3.088c-0.688-0.795-1.608-1.191-2.764-1.191c-1.174,0-2.093,0.396-2.762,1.191
				c-0.667,0.795-1.001,1.823-1.001,3.088v0.08H411.842z"/>
			<path fill="#FFFFFF" d="M417.785,103.326c-0.119-0.119-0.179-0.266-0.179-0.448V90.042c0-0.18,0.06-0.327,0.179-0.445
				c0.115-0.117,0.266-0.177,0.445-0.177h1.165c0.198,0,0.351,0.056,0.461,0.161c0.107,0.11,0.161,0.265,0.161,0.461v1.192
				c0.542-0.668,1.17-1.183,1.884-1.543c0.711-0.36,1.601-0.543,2.667-0.543c1.73,0,3.075,0.558,4.034,1.665
				c0.958,1.11,1.436,2.577,1.436,4.401v7.663c0,0.183-0.06,0.329-0.177,0.448c-0.118,0.115-0.268,0.175-0.445,0.175h-1.246
				c-0.183,0-0.329-0.06-0.448-0.175c-0.117-0.119-0.175-0.266-0.175-0.448v-7.5c0-1.3-0.317-2.313-0.948-3.032
				c-0.632-0.723-1.534-1.083-2.707-1.083c-1.156,0-2.078,0.365-2.764,1.096c-0.687,0.731-1.028,1.738-1.028,3.02v7.5
				c0,0.183-0.06,0.329-0.177,0.448c-0.117,0.115-0.266,0.175-0.445,0.175h-1.247C418.051,103.501,417.9,103.441,417.785,103.326z"
				/>
			<path fill="#FFFFFF" d="M434.991,98.763v-7.259h-2.14c-0.178,0-0.323-0.054-0.431-0.161c-0.109-0.108-0.163-0.253-0.163-0.436
				v-0.865c0-0.18,0.054-0.327,0.163-0.445c0.107-0.117,0.253-0.177,0.431-0.177h2.14v-4.521c0-0.183,0.056-0.331,0.164-0.449
				c0.107-0.117,0.252-0.177,0.435-0.177h1.19c0.18,0,0.328,0.06,0.445,0.177c0.117,0.118,0.177,0.267,0.177,0.449v4.521h3.358
				c0.182,0,0.328,0.06,0.445,0.177c0.119,0.118,0.179,0.266,0.179,0.445v0.865c0,0.183-0.06,0.327-0.179,0.436
				c-0.117,0.107-0.264,0.161-0.445,0.161h-3.358v7.069c0,0.921,0.148,1.613,0.445,2.084c0.3,0.47,0.811,0.705,1.531,0.705h1.652
				c0.181,0,0.325,0.06,0.433,0.175c0.11,0.117,0.162,0.266,0.162,0.448v0.893c0,0.183-0.052,0.329-0.162,0.448
				c-0.107,0.115-0.252,0.175-0.433,0.175h-1.842C436.392,103.501,434.991,101.922,434.991,98.763z"/>
			<path fill="#FFFFFF" d="M444.239,86.591c-0.117-0.118-0.177-0.266-0.177-0.449v-1.407c0-0.181,0.06-0.333,0.177-0.461
				c0.117-0.125,0.266-0.189,0.447-0.189h1.598c0.179,0,0.334,0.064,0.461,0.189c0.126,0.128,0.189,0.28,0.189,0.461v1.407
				c0,0.184-0.063,0.331-0.189,0.449c-0.127,0.115-0.282,0.175-0.461,0.175h-1.598C444.505,86.766,444.356,86.706,444.239,86.591z
				 M444.456,103.326c-0.118-0.119-0.176-0.266-0.176-0.448V90.042c0-0.18,0.058-0.327,0.176-0.445
				c0.115-0.117,0.266-0.177,0.446-0.177h1.192c0.18,0,0.329,0.06,0.445,0.177c0.119,0.118,0.179,0.266,0.179,0.445v12.836
				c0,0.183-0.06,0.329-0.179,0.448c-0.116,0.115-0.266,0.175-0.445,0.175h-1.192C444.722,103.501,444.571,103.441,444.456,103.326z
				"/>
			<path fill="#FFFFFF" d="M451.902,102.093c-1.073-1.12-1.647-2.607-1.72-4.469l-0.027-1.163l0.027-1.166
				c0.072-1.857,0.655-3.347,1.748-4.467c1.092-1.118,2.613-1.68,4.562-1.68c1.95,0,3.47,0.562,4.563,1.68
				c1.092,1.12,1.675,2.609,1.748,4.467c0.035,0.399,0.052,0.785,0.052,1.166c0,0.379-0.017,0.768-0.052,1.163
				c-0.073,1.861-0.646,3.349-1.721,4.469c-1.073,1.118-2.605,1.679-4.591,1.679S452.978,103.211,451.902,102.093z M459.241,100.644
				c0.678-0.731,1.044-1.783,1.096-3.155c0.019-0.181,0.027-0.521,0.027-1.027c0-0.507-0.009-0.849-0.027-1.03
				c-0.052-1.373-0.418-2.424-1.096-3.154c-0.677-0.731-1.594-1.098-2.749-1.098s-2.071,0.366-2.747,1.098
				c-0.678,0.73-1.044,1.781-1.098,3.154l-0.026,1.03l0.026,1.027c0.054,1.372,0.42,2.424,1.098,3.155
				c0.676,0.73,1.592,1.096,2.747,1.096S458.564,101.374,459.241,100.644z"/>
			<path fill="#FFFFFF" d="M466.443,103.326c-0.118-0.119-0.176-0.266-0.176-0.448V90.042c0-0.18,0.058-0.327,0.176-0.445
				c0.117-0.117,0.268-0.177,0.446-0.177h1.166c0.197,0,0.352,0.056,0.459,0.161c0.109,0.11,0.163,0.265,0.163,0.461v1.192
				c0.541-0.668,1.169-1.183,1.882-1.543s1.601-0.543,2.667-0.543c1.733,0,3.078,0.558,4.034,1.665
				c0.958,1.11,1.436,2.577,1.436,4.401v7.663c0,0.183-0.058,0.329-0.176,0.448c-0.117,0.115-0.266,0.175-0.446,0.175h-1.244
				c-0.183,0-0.331-0.06-0.449-0.175c-0.115-0.119-0.175-0.266-0.175-0.448v-7.5c0-1.3-0.316-2.313-0.947-3.032
				c-0.632-0.723-1.536-1.083-2.708-1.083c-1.155,0-2.077,0.365-2.764,1.096c-0.686,0.731-1.029,1.738-1.029,3.02v7.5
				c0,0.183-0.058,0.329-0.175,0.448c-0.118,0.115-0.268,0.175-0.445,0.175h-1.248C466.711,103.501,466.561,103.441,466.443,103.326
				z"/>
			<path fill="#FFFFFF" d="M487.228,103.339c-0.108-0.107-0.164-0.234-0.164-0.379l0.056-0.299l6.715-17.521
				c0.145-0.397,0.433-0.596,0.867-0.596h1.733c0.433,0,0.722,0.198,0.867,0.596l6.714,17.521l0.054,0.299
				c0,0.145-0.06,0.271-0.174,0.379c-0.119,0.107-0.249,0.162-0.395,0.162h-1.273c-0.179,0-0.327-0.051-0.446-0.149
				c-0.117-0.099-0.193-0.202-0.23-0.312l-1.516-3.898h-8.963l-1.49,3.898c-0.145,0.307-0.369,0.461-0.676,0.461h-1.3
				C487.461,103.501,487.335,103.446,487.228,103.339z M491.857,96.892h7.42l-3.711-9.719L491.857,96.892z"/>
			<path fill="#FFFFFF" d="M506.845,103.326c-0.117-0.119-0.177-0.266-0.177-0.448V84.899c0-0.201,0.06-0.354,0.177-0.461
				c0.119-0.109,0.268-0.165,0.449-0.165h1.19c0.181,0,0.329,0.06,0.446,0.177c0.116,0.118,0.176,0.267,0.176,0.449v17.979
				c0,0.183-0.06,0.329-0.176,0.448c-0.117,0.115-0.266,0.175-0.446,0.175h-1.19C507.112,103.501,506.964,103.441,506.845,103.326z"
				/>
			<path fill="#FFFFFF" d="M516.339,103.339c-0.128-0.107-0.229-0.278-0.299-0.515l-3.847-12.566l-0.054-0.27
				c0-0.161,0.054-0.297,0.164-0.407c0.107-0.105,0.243-0.161,0.402-0.161h1.112c0.181,0,0.329,0.05,0.446,0.15
				c0.119,0.097,0.186,0.191,0.204,0.282l3.061,10.344l3.249-10.208c0.037-0.143,0.119-0.273,0.243-0.392
				c0.126-0.117,0.297-0.177,0.517-0.177h0.865c0.216,0,0.387,0.06,0.515,0.177c0.124,0.118,0.208,0.249,0.243,0.392l3.248,10.208
				l3.062-10.344c0.019-0.091,0.085-0.186,0.204-0.282c0.115-0.101,0.266-0.15,0.446-0.15h1.11c0.161,0,0.299,0.056,0.406,0.161
				c0.106,0.11,0.164,0.246,0.164,0.407l-0.058,0.27l-3.845,12.566c-0.072,0.236-0.171,0.407-0.297,0.515
				c-0.127,0.107-0.316,0.162-0.568,0.162h-0.976c-0.47,0-0.776-0.226-0.921-0.677l-3.169-9.803l-3.167,9.803
				c-0.146,0.451-0.449,0.677-0.919,0.677h-0.978C516.653,103.501,516.462,103.446,516.339,103.339z"/>
			<path fill="#FFFFFF" d="M535.875,103.231c-0.751-0.362-1.345-0.853-1.789-1.477c-0.443-0.622-0.661-1.313-0.661-2.073
				c0-1.188,0.486-2.165,1.462-2.925c0.973-0.756,2.301-1.262,3.979-1.514l4.063-0.57v-0.786c0-1.857-1.075-2.788-3.225-2.788
				c-0.83,0-1.496,0.168-2.002,0.5c-0.505,0.336-0.877,0.727-1.11,1.178c-0.072,0.184-0.146,0.305-0.229,0.365
				c-0.084,0.065-0.195,0.096-0.342,0.096h-1.053c-0.162,0-0.305-0.058-0.422-0.175c-0.115-0.117-0.175-0.257-0.175-0.422
				c0-0.414,0.191-0.897,0.581-1.447c0.391-0.552,0.988-1.028,1.8-1.436c0.813-0.406,1.806-0.609,2.981-0.609
				c2.022,0,3.47,0.472,4.344,1.408c0.877,0.938,1.315,2.113,1.315,3.521v8.8c0,0.183-0.06,0.329-0.177,0.448
				c-0.118,0.115-0.266,0.175-0.445,0.175h-1.192c-0.181,0-0.327-0.06-0.435-0.175c-0.106-0.119-0.164-0.266-0.164-0.448v-1.19
				c-0.396,0.597-0.973,1.093-1.732,1.488c-0.756,0.397-1.733,0.596-2.924,0.596C537.44,103.771,536.625,103.592,535.875,103.231z
				 M541.79,100.631c0.76-0.776,1.139-1.905,1.139-3.384v-0.76l-3.168,0.461c-1.299,0.18-2.285,0.488-2.952,0.921
				c-0.668,0.433-1.001,0.975-1.001,1.625c0,0.741,0.299,1.308,0.906,1.705c0.604,0.397,1.321,0.595,2.151,0.595
				C540.058,101.794,541.032,101.407,541.79,100.631z"/>
			<path fill="#FFFFFF" d="M551.081,108.483c-0.11-0.109-0.166-0.235-0.166-0.381c0-0.052,0.047-0.215,0.136-0.486l2.114-4.955
				l-5.173-12.212c-0.108-0.218-0.164-0.37-0.164-0.461c0.019-0.161,0.084-0.297,0.189-0.407c0.11-0.105,0.238-0.161,0.381-0.161
				h1.246c0.286,0,0.506,0.145,0.65,0.433l4.17,9.965l4.277-9.965c0.145-0.288,0.36-0.433,0.65-0.433h1.218
				c0.146,0,0.271,0.056,0.379,0.161c0.11,0.11,0.162,0.236,0.162,0.381c0,0.125-0.045,0.288-0.136,0.487l-7.661,17.764
				c-0.092,0.145-0.187,0.252-0.284,0.324c-0.101,0.073-0.23,0.11-0.395,0.11h-1.192
				C551.322,108.647,551.188,108.593,551.081,108.483z"/>
			<path fill="#FFFFFF" d="M565.12,103.16c-0.856-0.404-1.493-0.867-1.907-1.393c-0.416-0.523-0.622-0.956-0.622-1.3
				c0-0.181,0.062-0.321,0.188-0.42c0.128-0.099,0.264-0.146,0.406-0.146h1.139c0.106,0,0.191,0.015,0.257,0.054
				c0.063,0.035,0.148,0.117,0.256,0.241c0.414,0.505,0.881,0.904,1.396,1.192c0.516,0.29,1.205,0.435,2.072,0.435
				c0.974,0,1.754-0.18,2.34-0.542c0.589-0.362,0.881-0.885,0.881-1.571c0-0.451-0.126-0.813-0.377-1.081
				c-0.255-0.273-0.674-0.517-1.262-0.732c-0.585-0.219-1.456-0.451-2.613-0.705c-1.57-0.342-2.68-0.84-3.33-1.49
				c-0.649-0.647-0.975-1.489-0.975-2.517c0-0.668,0.198-1.314,0.596-1.937c0.396-0.624,0.99-1.128,1.772-1.516
				c0.785-0.389,1.722-0.584,2.805-0.584c1.137,0,2.107,0.191,2.912,0.568c0.803,0.379,1.408,0.821,1.813,1.326
				c0.407,0.506,0.611,0.931,0.611,1.272c0,0.164-0.06,0.299-0.179,0.409c-0.117,0.107-0.256,0.161-0.418,0.161h-1.03
				c-0.251,0-0.431-0.101-0.541-0.297c-0.306-0.344-0.564-0.609-0.772-0.799c-0.208-0.191-0.509-0.353-0.906-0.486
				c-0.397-0.136-0.896-0.205-1.489-0.205c-0.886,0-1.563,0.185-2.03,0.556c-0.47,0.37-0.706,0.862-0.706,1.477
				c0,0.377,0.101,0.7,0.298,0.96c0.2,0.263,0.579,0.506,1.14,0.732c0.558,0.225,1.388,0.455,2.489,0.69
				c1.716,0.36,2.929,0.875,3.644,1.542c0.712,0.668,1.068,1.526,1.068,2.574c0,0.776-0.221,1.479-0.661,2.109
				c-0.444,0.634-1.102,1.13-1.979,1.492c-0.876,0.36-1.918,0.54-3.127,0.54C567.029,103.771,565.977,103.569,565.12,103.16z"/>
			<path fill="#FFFFFF" d="M585.51,101.809c-1.255-1.308-1.928-3.1-2.017-5.377c-0.019-0.487-0.029-1.28-0.029-2.38
				c0-1.121,0.011-1.933,0.029-2.438c0.089-2.273,0.762-4.065,2.017-5.377c1.254-1.308,3.082-1.963,5.483-1.963
				c1.608,0,2.97,0.286,4.09,0.856c1.118,0.566,1.963,1.311,2.531,2.232c0.568,0.921,0.881,1.903,0.935,2.951
				c0,0.163-0.06,0.293-0.175,0.394c-0.119,0.099-0.26,0.146-0.422,0.146h-1.354c-0.181,0-0.323-0.042-0.433-0.136
				c-0.11-0.089-0.189-0.241-0.245-0.46c-0.305-1.388-0.86-2.364-1.663-2.924c-0.806-0.559-1.893-0.838-3.265-0.838
				c-3.139,0-4.775,1.752-4.901,5.253c-0.019,0.486-0.026,1.237-0.026,2.247c0,1.013,0.008,1.778,0.026,2.3
				c0.126,3.486,1.763,5.229,4.901,5.229c1.354,0,2.438-0.28,3.25-0.838c0.812-0.561,1.373-1.526,1.678-2.899
				c0.056-0.215,0.135-0.369,0.245-0.46c0.109-0.09,0.252-0.136,0.433-0.136h1.354c0.162,0,0.303,0.05,0.422,0.15
				c0.115,0.099,0.175,0.23,0.175,0.392c-0.054,1.046-0.366,2.032-0.935,2.953c-0.568,0.918-1.413,1.662-2.531,2.232
				c-1.12,0.568-2.481,0.853-4.09,0.853C588.592,103.771,586.764,103.12,585.51,101.809z"/>
			<path fill="#FFFFFF" d="M603.003,102.093c-1.076-1.12-1.647-2.607-1.721-4.469l-0.027-1.163l0.027-1.166
				c0.073-1.857,0.654-3.347,1.746-4.467c1.094-1.118,2.613-1.68,4.563-1.68s3.472,0.562,4.563,1.68
				c1.093,1.12,1.674,2.609,1.746,4.467c0.037,0.399,0.056,0.785,0.056,1.166c0,0.379-0.019,0.768-0.056,1.163
				c-0.072,1.861-0.645,3.349-1.72,4.469c-1.073,1.118-2.604,1.679-4.59,1.679S604.074,103.211,603.003,102.093z M610.341,100.644
				c0.678-0.731,1.042-1.783,1.098-3.155c0.017-0.181,0.026-0.521,0.026-1.027c0-0.507-0.01-0.849-0.026-1.03
				c-0.056-1.373-0.42-2.424-1.098-3.154c-0.678-0.731-1.596-1.098-2.749-1.098c-1.155,0-2.07,0.366-2.749,1.098
				c-0.676,0.73-1.041,1.781-1.096,3.154l-0.027,1.03l0.027,1.027c0.055,1.372,0.42,2.424,1.096,3.155
				c0.679,0.73,1.594,1.096,2.749,1.096C608.745,101.739,609.663,101.374,610.341,100.644z"/>
			<path fill="#FFFFFF" d="M617.546,103.326c-0.119-0.119-0.175-0.266-0.175-0.448V90.042c0-0.18,0.056-0.327,0.175-0.445
				c0.116-0.117,0.266-0.177,0.445-0.177h1.137c0.182,0,0.327,0.06,0.435,0.177c0.107,0.118,0.162,0.266,0.162,0.445v0.922
				c0.977-1.21,2.293-1.815,3.954-1.815c1.985,0,3.394,0.832,4.224,2.491c0.435-0.758,1.051-1.361,1.855-1.813
				c0.802-0.452,1.703-0.679,2.694-0.679c1.479,0,2.689,0.508,3.63,1.518c0.938,1.013,1.407,2.475,1.407,4.388v7.824
				c0,0.183-0.059,0.329-0.176,0.448c-0.119,0.115-0.268,0.175-0.448,0.175h-1.162c-0.183,0-0.331-0.06-0.448-0.175
				c-0.118-0.119-0.178-0.266-0.178-0.448v-7.583c0-1.443-0.296-2.476-0.892-3.101c-0.597-0.622-1.382-0.932-2.355-0.932
				c-0.869,0-1.612,0.319-2.236,0.96c-0.622,0.643-0.932,1.664-0.932,3.072v7.583c0,0.183-0.06,0.329-0.177,0.448
				c-0.119,0.115-0.268,0.175-0.447,0.175h-1.193c-0.18,0-0.326-0.06-0.445-0.175c-0.117-0.119-0.177-0.266-0.177-0.448v-7.583
				c0-1.425-0.31-2.454-0.934-3.085c-0.622-0.632-1.394-0.947-2.314-0.947c-0.867,0-1.612,0.315-2.234,0.947
				c-0.622,0.631-0.935,1.651-0.935,3.059v7.609c0,0.183-0.058,0.329-0.176,0.448c-0.115,0.115-0.266,0.175-0.446,0.175h-1.192
				C617.812,103.501,617.662,103.441,617.546,103.326z"/>
			<path fill="#FFFFFF" d="M642.579,102.054c-1.102-1.148-1.707-2.714-1.813-4.701l-0.029-0.921l0.029-0.892
				c0.106-1.948,0.712-3.501,1.813-4.658c1.102-1.155,2.572-1.733,4.414-1.733c1.984,0,3.525,0.632,4.618,1.895
				c1.092,1.266,1.638,2.979,1.638,5.147v0.486c0,0.18-0.06,0.33-0.177,0.445c-0.118,0.119-0.267,0.179-0.445,0.179h-9.398v0.241
				c0.054,1.176,0.416,2.177,1.083,3.009c0.669,0.829,1.553,1.243,2.654,1.243c0.849,0,1.54-0.166,2.071-0.5
				c0.532-0.332,0.936-0.682,1.207-1.042c0.159-0.218,0.286-0.348,0.377-0.392c0.089-0.047,0.243-0.069,0.461-0.069h1.19
				c0.163,0,0.305,0.045,0.42,0.136c0.116,0.09,0.176,0.208,0.176,0.352c0,0.397-0.241,0.874-0.731,1.436
				c-0.486,0.561-1.176,1.042-2.071,1.446c-0.894,0.409-1.918,0.611-3.072,0.611C645.151,103.771,643.681,103.199,642.579,102.054z
				 M650.784,95.458v-0.08c0-1.265-0.344-2.293-1.03-3.088c-0.686-0.795-1.606-1.191-2.761-1.191c-1.175,0-2.097,0.396-2.764,1.191
				c-0.666,0.795-1.001,1.823-1.001,3.088v0.08H650.784z"/>
			<path fill="#FFFFFF" d="M658.216,103.16c-0.856-0.404-1.491-0.867-1.907-1.393c-0.416-0.523-0.623-0.956-0.623-1.3
				c0-0.181,0.062-0.321,0.188-0.42c0.128-0.099,0.264-0.146,0.408-0.146h1.137c0.105,0,0.193,0.015,0.256,0.054
				c0.063,0.035,0.149,0.117,0.257,0.241c0.416,0.505,0.88,0.904,1.395,1.192c0.517,0.29,1.207,0.435,2.073,0.435
				c0.973,0,1.755-0.18,2.34-0.542c0.589-0.362,0.881-0.885,0.881-1.571c0-0.451-0.125-0.813-0.377-1.081
				c-0.255-0.273-0.675-0.517-1.26-0.732c-0.587-0.219-1.458-0.451-2.613-0.705c-1.573-0.342-2.68-0.84-3.33-1.49
				c-0.652-0.647-0.977-1.489-0.977-2.517c0-0.668,0.2-1.314,0.596-1.937c0.396-0.624,0.99-1.128,1.773-1.516
				c0.786-0.389,1.721-0.584,2.803-0.584c1.137,0,2.108,0.191,2.913,0.568c0.802,0.379,1.407,0.821,1.814,1.326
				c0.404,0.506,0.609,0.931,0.609,1.272c0,0.164-0.06,0.299-0.179,0.409c-0.117,0.107-0.256,0.161-0.418,0.161h-1.029
				c-0.252,0-0.433-0.101-0.542-0.297c-0.307-0.344-0.564-0.609-0.771-0.799c-0.21-0.191-0.511-0.353-0.906-0.486
				c-0.399-0.136-0.896-0.205-1.492-0.205c-0.886,0-1.562,0.185-2.029,0.556c-0.471,0.37-0.704,0.862-0.704,1.477
				c0,0.377,0.099,0.7,0.295,0.96c0.201,0.263,0.58,0.506,1.141,0.732c0.558,0.225,1.39,0.455,2.49,0.69
				c1.717,0.36,2.93,0.875,3.643,1.542c0.713,0.668,1.068,1.526,1.068,2.574c0,0.776-0.22,1.479-0.661,2.109
				c-0.444,0.634-1.102,1.13-1.979,1.492c-0.875,0.36-1.917,0.54-3.128,0.54C660.125,103.771,659.074,103.569,658.216,103.16z"/>
			<path fill="#FFFFFF" d="M678.702,101.823c-1.302-1.302-1.997-3.061-2.088-5.282c-0.017-0.54-0.025-1.39-0.025-2.545
				c0-1.174,0.009-2.022,0.025-2.546c0.074-2.201,0.766-3.947,2.073-5.239c1.308-1.291,3.135-1.938,5.482-1.938
				c1.588,0,2.935,0.29,4.036,0.867c1.102,0.579,1.932,1.271,2.492,2.073c0.558,0.804,0.856,1.547,0.892,2.232v0.056
				c0,0.145-0.06,0.266-0.174,0.364c-0.119,0.1-0.251,0.15-0.396,0.15h-1.514c-0.163,0-0.284-0.036-0.365-0.11
				c-0.084-0.07-0.158-0.206-0.23-0.404c-0.29-0.849-0.823-1.563-1.6-2.14c-0.776-0.58-1.823-0.866-3.141-0.866
				c-1.518,0-2.708,0.415-3.575,1.243c-0.865,0.832-1.326,2.113-1.38,3.847c-0.017,0.523-0.026,1.326-0.026,2.41
				c0,1.066,0.01,1.869,0.026,2.409c0.054,1.752,0.515,3.044,1.38,3.873c0.867,0.83,2.058,1.246,3.575,1.246
				c1.534,0,2.764-0.422,3.686-1.26c0.919-0.839,1.378-2.097,1.378-3.777v-1.163h-4.142c-0.181,0-0.331-0.064-0.446-0.191
				c-0.119-0.124-0.177-0.278-0.177-0.46v-0.812c0-0.181,0.058-0.335,0.177-0.461c0.115-0.125,0.266-0.189,0.446-0.189h6.063
				c0.201,0,0.358,0.06,0.476,0.177c0.115,0.118,0.175,0.274,0.175,0.474v2.57c0,1.465-0.301,2.749-0.906,3.859
				c-0.605,1.112-1.486,1.969-2.64,2.574c-1.155,0.605-2.519,0.906-4.09,0.906C681.822,103.771,680,103.122,678.702,101.823z"/>
			<path fill="#FFFFFF" d="M695.531,103.326c-0.118-0.119-0.177-0.266-0.177-0.448V90.07c0-0.181,0.059-0.335,0.177-0.461
				c0.115-0.124,0.266-0.189,0.446-0.189h1.137c0.198,0,0.356,0.06,0.475,0.177c0.115,0.118,0.175,0.274,0.175,0.474v1.192
				c0.741-1.229,1.995-1.843,3.765-1.843h1.058c0.196,0,0.351,0.056,0.46,0.161c0.106,0.11,0.162,0.265,0.162,0.461v1.001
				c0,0.181-0.056,0.331-0.162,0.45c-0.109,0.115-0.264,0.174-0.46,0.174h-1.546c-0.991,0-1.773,0.288-2.34,0.868
				c-0.57,0.575-0.854,1.361-0.854,2.354v7.988c0,0.183-0.065,0.329-0.191,0.448c-0.124,0.115-0.278,0.175-0.461,0.175h-1.216
				C695.797,103.501,695.646,103.441,695.531,103.326z"/>
			<path fill="#FFFFFF" d="M706.431,102.054c-1.102-1.148-1.707-2.714-1.813-4.701l-0.029-0.921l0.029-0.892
				c0.106-1.948,0.712-3.501,1.813-4.658c1.102-1.155,2.574-1.733,4.414-1.733c1.986,0,3.525,0.632,4.618,1.895
				c1.092,1.266,1.638,2.979,1.638,5.147v0.486c0,0.18-0.06,0.33-0.177,0.445c-0.118,0.119-0.267,0.179-0.445,0.179h-9.398v0.241
				c0.056,1.176,0.416,2.177,1.083,3.009c0.671,0.829,1.553,1.243,2.654,1.243c0.849,0,1.54-0.166,2.072-0.5
				c0.531-0.332,0.935-0.682,1.206-1.042c0.161-0.218,0.288-0.348,0.377-0.392c0.091-0.047,0.245-0.069,0.461-0.069h1.192
				c0.163,0,0.303,0.045,0.419,0.136c0.115,0.09,0.175,0.208,0.175,0.352c0,0.397-0.241,0.874-0.729,1.436
				c-0.487,0.561-1.178,1.042-2.073,1.446c-0.894,0.409-1.918,0.611-3.072,0.611C709.005,103.771,707.532,103.199,706.431,102.054z
				 M714.636,95.458v-0.08c0-1.265-0.344-2.293-1.028-3.088c-0.688-0.795-1.608-1.191-2.763-1.191c-1.174,0-2.095,0.396-2.762,1.191
				c-0.666,0.795-1.003,1.823-1.003,3.088v0.08H714.636z"/>
			<path fill="#FFFFFF" d="M721.852,103.231c-0.748-0.362-1.345-0.853-1.786-1.477c-0.442-0.622-0.663-1.313-0.663-2.073
				c0-1.188,0.486-2.165,1.463-2.925c0.974-0.756,2.3-1.262,3.98-1.514l4.063-0.57v-0.786c0-1.857-1.076-2.788-3.225-2.788
				c-0.83,0-1.497,0.168-2.004,0.5c-0.506,0.336-0.875,0.727-1.111,1.178c-0.07,0.184-0.146,0.305-0.229,0.365
				c-0.08,0.065-0.193,0.096-0.337,0.096h-1.057c-0.163,0-0.303-0.058-0.42-0.175c-0.118-0.117-0.176-0.257-0.176-0.422
				c0-0.414,0.192-0.897,0.583-1.447c0.388-0.552,0.986-1.028,1.802-1.436c0.812-0.406,1.803-0.609,2.977-0.609
				c2.021,0,3.472,0.472,4.347,1.408c0.875,0.938,1.313,2.113,1.313,3.521v8.8c0,0.183-0.06,0.329-0.175,0.448
				c-0.119,0.115-0.27,0.175-0.449,0.175h-1.189c-0.184,0-0.325-0.06-0.435-0.175c-0.109-0.119-0.161-0.266-0.161-0.448v-1.19
				c-0.399,0.597-0.976,1.093-1.735,1.488c-0.758,0.397-1.732,0.596-2.925,0.596C723.419,103.771,722.601,103.592,721.852,103.231z
				 M727.77,100.631c0.758-0.776,1.139-1.905,1.139-3.384v-0.76l-3.171,0.461c-1.3,0.18-2.282,0.488-2.949,0.921
				c-0.671,0.433-1.005,0.975-1.005,1.625c0,0.741,0.305,1.308,0.91,1.705c0.602,0.397,1.322,0.595,2.152,0.595
				C726.034,101.794,727.01,101.407,727.77,100.631z"/>
			<path fill="#FFFFFF" d="M736.38,98.763v-7.259h-2.14c-0.181,0-0.325-0.054-0.435-0.161c-0.105-0.108-0.162-0.253-0.162-0.436
				v-0.865c0-0.18,0.057-0.327,0.162-0.445c0.109-0.117,0.254-0.177,0.435-0.177h2.14v-4.521c0-0.183,0.054-0.331,0.162-0.449
				c0.107-0.117,0.252-0.177,0.434-0.177h1.191c0.18,0,0.33,0.06,0.445,0.177c0.119,0.118,0.177,0.267,0.177,0.449v4.521h3.357
				c0.181,0,0.331,0.06,0.448,0.177c0.117,0.118,0.175,0.266,0.175,0.445v0.865c0,0.183-0.058,0.327-0.175,0.436
				c-0.117,0.107-0.268,0.161-0.448,0.161h-3.357v7.069c0,0.921,0.148,1.613,0.447,2.084c0.297,0.47,0.808,0.705,1.528,0.705h1.653
				c0.181,0,0.325,0.06,0.435,0.175c0.106,0.117,0.162,0.266,0.162,0.448v0.893c0,0.183-0.056,0.329-0.162,0.448
				c-0.109,0.115-0.254,0.175-0.435,0.175h-1.843C737.778,103.501,736.38,101.922,736.38,98.763z"/>
			<path fill="#FFFFFF" d="M752.842,103.326c-0.108-0.119-0.162-0.266-0.162-0.448V85.194c0-0.196,0.054-0.354,0.162-0.474
				c0.109-0.117,0.252-0.176,0.435-0.176h6.604c2.058,0,3.67,0.484,4.837,1.45c1.162,0.966,1.745,2.368,1.745,4.211
				c0,1.372-0.344,2.5-1.028,3.386c-0.688,0.882-1.645,1.497-2.872,1.839l4.172,7.23c0.054,0.109,0.08,0.208,0.08,0.299
				c0,0.145-0.054,0.271-0.164,0.379c-0.105,0.107-0.231,0.162-0.377,0.162h-1.192c-0.27,0-0.482-0.063-0.635-0.189
				c-0.154-0.127-0.296-0.307-0.42-0.541l-3.982-6.932h-4.819v7.039c0,0.183-0.062,0.329-0.189,0.448
				c-0.126,0.115-0.28,0.175-0.461,0.175h-1.298C753.094,103.501,752.951,103.441,752.842,103.326z M759.774,93.617
				c2.726,0,4.087-1.147,4.087-3.439c0-2.294-1.361-3.439-4.087-3.439h-4.55v6.879H759.774z"/>
			<path fill="#FFFFFF" d="M771.04,102.054c-1.102-1.148-1.707-2.714-1.813-4.701l-0.029-0.921l0.029-0.892
				c0.106-1.948,0.712-3.501,1.813-4.658c1.101-1.155,2.574-1.733,4.414-1.733c1.986,0,3.525,0.632,4.618,1.895
				c1.092,1.266,1.638,2.979,1.638,5.147v0.486c0,0.18-0.06,0.33-0.177,0.445c-0.118,0.119-0.267,0.179-0.445,0.179h-9.398v0.241
				c0.056,1.176,0.416,2.177,1.083,3.009c0.671,0.829,1.553,1.243,2.654,1.243c0.849,0,1.54-0.166,2.072-0.5
				c0.531-0.332,0.935-0.682,1.206-1.042c0.161-0.218,0.286-0.348,0.377-0.392c0.091-0.047,0.245-0.069,0.461-0.069h1.192
				c0.163,0,0.303,0.045,0.419,0.136c0.115,0.09,0.175,0.208,0.175,0.352c0,0.397-0.241,0.874-0.729,1.436
				c-0.487,0.561-1.178,1.042-2.073,1.446c-0.894,0.409-1.918,0.611-3.072,0.611C773.614,103.771,772.141,103.199,771.04,102.054z
				 M779.245,95.458v-0.08c0-1.265-0.344-2.293-1.028-3.088c-0.688-0.795-1.608-1.191-2.763-1.191c-1.174,0-2.095,0.396-2.762,1.191
				c-0.666,0.795-1.003,1.823-1.003,3.088v0.08H779.245z"/>
			<path fill="#FFFFFF" d="M787.8,103.339c-0.126-0.107-0.225-0.278-0.297-0.515l-3.845-12.566l-0.054-0.27
				c0-0.161,0.054-0.297,0.163-0.407c0.106-0.105,0.242-0.161,0.405-0.161h1.109c0.18,0,0.33,0.05,0.449,0.15
				c0.115,0.097,0.184,0.191,0.2,0.282l3.062,10.344l3.248-10.208c0.035-0.143,0.119-0.273,0.245-0.392
				c0.126-0.117,0.297-0.177,0.515-0.177h0.867c0.216,0,0.387,0.06,0.515,0.177c0.126,0.118,0.206,0.249,0.241,0.392l3.25,10.208
				l3.06-10.344c0.021-0.091,0.085-0.186,0.204-0.282c0.117-0.101,0.266-0.15,0.447-0.15h1.111c0.161,0,0.295,0.056,0.404,0.161
				c0.11,0.11,0.162,0.246,0.162,0.407l-0.052,0.27l-3.845,12.566c-0.074,0.236-0.175,0.407-0.299,0.515
				c-0.127,0.107-0.316,0.162-0.568,0.162h-0.976c-0.47,0-0.776-0.226-0.921-0.677l-3.169-9.803l-3.169,9.803
				c-0.143,0.451-0.451,0.677-0.919,0.677h-0.976C788.116,103.501,787.927,103.446,787.8,103.339z"/>
			<path fill="#FFFFFF" d="M807.338,103.231c-0.749-0.362-1.345-0.853-1.787-1.477c-0.442-0.622-0.663-1.313-0.663-2.073
				c0-1.188,0.486-2.165,1.464-2.925c0.973-0.756,2.299-1.262,3.98-1.514l4.062-0.57v-0.786c0-1.857-1.075-2.788-3.225-2.788
				c-0.83,0-1.497,0.168-2.004,0.5c-0.505,0.336-0.875,0.727-1.11,1.178c-0.07,0.184-0.146,0.305-0.23,0.365
				c-0.08,0.065-0.193,0.096-0.336,0.096h-1.057c-0.164,0-0.303-0.058-0.42-0.175c-0.119-0.117-0.177-0.257-0.177-0.422
				c0-0.414,0.193-0.897,0.583-1.447c0.389-0.552,0.986-1.028,1.802-1.436c0.812-0.406,1.804-0.609,2.978-0.609
				c2.021,0,3.472,0.472,4.346,1.408c0.875,0.938,1.313,2.113,1.313,3.521v8.8c0,0.183-0.06,0.329-0.175,0.448
				c-0.118,0.115-0.269,0.175-0.449,0.175h-1.188c-0.184,0-0.325-0.06-0.435-0.175c-0.11-0.119-0.162-0.266-0.162-0.448v-1.19
				c-0.399,0.597-0.975,1.093-1.734,1.488c-0.758,0.397-1.733,0.596-2.926,0.596C808.905,103.771,808.086,103.592,807.338,103.231z
				 M813.255,100.631c0.758-0.776,1.139-1.905,1.139-3.384v-0.76l-3.17,0.461c-1.301,0.18-2.283,0.488-2.95,0.921
				c-0.668,0.433-1.005,0.975-1.005,1.625c0,0.741,0.305,1.308,0.91,1.705c0.602,0.397,1.322,0.595,2.153,0.595
				C811.521,101.794,812.495,101.407,813.255,100.631z"/>
			<path fill="#FFFFFF" d="M820.961,103.326c-0.118-0.119-0.176-0.266-0.176-0.448V90.07c0-0.181,0.058-0.335,0.176-0.461
				c0.115-0.124,0.266-0.189,0.446-0.189h1.137c0.2,0,0.356,0.06,0.476,0.177c0.116,0.118,0.174,0.274,0.174,0.474v1.192
				c0.741-1.229,1.995-1.843,3.766-1.843h1.057c0.196,0,0.351,0.056,0.46,0.161c0.108,0.11,0.162,0.265,0.162,0.461v1.001
				c0,0.181-0.054,0.331-0.162,0.45c-0.109,0.115-0.264,0.174-0.46,0.174h-1.546c-0.991,0-1.773,0.288-2.34,0.868
				c-0.57,0.575-0.854,1.361-0.854,2.354v7.988c0,0.183-0.065,0.329-0.189,0.448c-0.126,0.115-0.28,0.175-0.461,0.175h-1.218
				C821.227,103.501,821.076,103.441,820.961,103.326z"/>
			<path fill="#FFFFFF" d="M831.548,101.929c-0.947-1.228-1.458-2.778-1.528-4.656l-0.03-0.812l0.03-0.812
				c0.07-1.861,0.585-3.41,1.542-4.646c0.956-1.236,2.373-1.855,4.251-1.855s3.34,0.669,4.387,2.005v-6.254
				c0-0.183,0.06-0.331,0.177-0.449c0.119-0.117,0.268-0.177,0.447-0.177h1.219c0.18,0,0.329,0.06,0.445,0.177
				c0.119,0.118,0.177,0.267,0.177,0.449v17.979c0,0.183-0.058,0.329-0.177,0.448c-0.116,0.115-0.266,0.175-0.445,0.175h-1.166
				c-0.181,0-0.321-0.06-0.432-0.175c-0.109-0.119-0.163-0.266-0.163-0.448v-1.164c-1.029,1.372-2.517,2.058-4.469,2.058
				C833.918,103.771,832.497,103.159,831.548,101.929z M839.173,100.4c0.631-0.839,0.973-1.837,1.026-2.992
				c0.019-0.196,0.028-0.542,0.028-1.028c0-0.506-0.01-0.856-0.028-1.056c-0.035-1.102-0.382-2.054-1.042-2.858
				c-0.659-0.802-1.603-1.203-2.828-1.203c-1.303,0-2.25,0.404-2.844,1.217c-0.597,0.813-0.922,1.877-0.977,3.196l-0.026,0.785
				c0,3.466,1.281,5.199,3.847,5.199C837.592,101.66,838.537,101.238,839.173,100.4z"/>
		</g>
	</g>
</g>
</svg>
