<?xml version="1.0" encoding="utf-8"?>
<!-- Generator: Adobe Illustrator 16.0.0, SVG Export Plug-In . SVG Version: 6.00 Build 0)  -->
<!DOCTYPE svg PUBLIC "-//W3C//DTD SVG 1.1//EN" "http://www.w3.org/Graphics/SVG/1.1/DTD/svg11.dtd">
<svg version="1.1" id="Layer_1" xmlns="http://www.w3.org/2000/svg" xmlns:xlink="http://www.w3.org/1999/xlink" x="0px" y="0px"
	 width="512px" height="512px" viewBox="0 0 512 512" enable-background="new 0 0 512 512" xml:space="preserve">
<g>
	<g>
		<g>
			<path fill="#FFFFFF" d="M340.371,248.584H171.628c-4.095,0-7.415,3.32-7.415,7.416s3.32,7.415,7.415,7.415h168.743
				c4.096,0,7.416-3.319,7.416-7.415S344.467,248.584,340.371,248.584z"/>
		</g>
	</g>
	<g>
		<g>
			<path fill="#FFFFFF" d="M340.371,192.337H171.628c-4.095,0-7.415,3.32-7.415,7.416c0,4.095,3.32,7.415,7.415,7.415h168.743
				c4.096,0,7.416-3.32,7.416-7.415C347.787,195.657,344.467,192.337,340.371,192.337z"/>
		</g>
	</g>
	<g>
		<g>
			<path fill="#FFFFFF" d="M340.371,304.833H171.628c-4.095,0-7.415,3.319-7.415,7.415s3.32,7.415,7.415,7.415h168.743
				c4.096,0,7.416-3.319,7.416-7.415S344.467,304.833,340.371,304.833z"/>
		</g>
	</g>
</g>
</svg>
