<?xml version="1.0" encoding="utf-8"?>
<!-- Generator: Adobe Illustrator 16.0.0, SVG Export Plug-In . SVG Version: 6.00 Build 0)  -->
<!DOCTYPE svg PUBLIC "-//W3C//DTD SVG 1.1//EN" "http://www.w3.org/Graphics/SVG/1.1/DTD/svg11.dtd">
<svg version="1.1" id="Capa_1" xmlns="http://www.w3.org/2000/svg" xmlns:xlink="http://www.w3.org/1999/xlink" x="0px" y="0px"
	 width="512px" height="512px" viewBox="0 0 512 512" enable-background="new 0 0 512 512" xml:space="preserve">
<g>
	<polygon fill="#FEFEFE" points="210,350.826 209.998,350.828 209.994,350.83 	"/>
	<polygon fill="#FEFEFE" points="200.492,351.263 200.491,351.262 200.488,351.261 	"/>
	<path fill="#FEFEFE" d="M346.358,208.506c-7.412-14.883-19.788-27.135-35.373-35.62c-15.593-8.491-34.418-13.256-54.984-13.257
		c-27.417,0.003-51.76,8.468-69.435,22.955c-8.831,7.242-15.984,16.003-20.923,25.921c-4.941,9.913-7.646,20.981-7.643,32.676
		c-0.008,14.881,3.61,28.569,10.636,40.211c6.374,10.587,15.538,19.412,26.973,26.032v35.672c0.008,3.415,1.856,6.528,4.881,8.164
		c1.375,0.737,2.87,1.105,4.391,1.107c1.784,0.001,3.571-0.519,5.116-1.541l42.619-28.19c1.078,0.05,2.2,0.089,3.384,0.09
		c27.417-0.004,51.759-8.467,69.435-22.952c8.831-7.242,15.984-16.003,20.923-25.92c4.94-9.912,7.646-20.979,7.643-32.673
		C354.005,229.488,351.299,218.419,346.358,208.506z M250.532,303.966l0,0.013c-0.197-0.013-0.399-0.037-0.586-0.037
		c-1.049,0.002-1.983,0.189-2.811,0.466c-0.829,0.279-1.557,0.65-2.222,1.092l0.015-0.011l-30.778,20.358v-23.958
		c-0.006-3.529-1.988-6.738-5.168-8.314l0.006,0.003c-6.877-3.401-12.262-7.322-16.527-11.524
		c-6.388-6.305-10.31-13.268-12.708-20.322c-2.391-7.046-3.209-14.187-3.207-20.548c0.004-8.894,2.059-17.147,5.841-24.645
		c5.673-11.232,15.308-20.793,27.959-27.59c12.641-6.791,28.27-10.773,45.655-10.771c23.185-0.004,43.225,7.084,57.262,18.449
		c7.026,5.683,12.562,12.42,16.347,19.912c3.782,7.498,5.837,15.752,5.841,24.646c-0.004,8.893-2.059,17.147-5.842,24.644
		c-5.673,11.23-15.308,20.791-27.958,27.586c-12.642,6.79-28.271,10.772-45.655,10.771c-1.381,0.001-2.839-0.074-4.416-0.162
		l-0.016-0.001L250.532,303.966z"/>
</g>
</svg>
