<?xml version="1.0" encoding="utf-8"?>
<!-- Generator: Adobe Illustrator 16.0.0, SVG Export Plug-In . SVG Version: 6.00 Build 0)  -->
<!DOCTYPE svg PUBLIC "-//W3C//DTD SVG 1.1//EN" "http://www.w3.org/Graphics/SVG/1.1/DTD/svg11.dtd">
<svg version="1.1" id="Layer_1" xmlns="http://www.w3.org/2000/svg" xmlns:xlink="http://www.w3.org/1999/xlink" x="0px" y="0px"
	 width="400px" height="54.81px" viewBox="0 0 400 54.81" enable-background="new 0 0 400 54.81" xml:space="preserve">
<g>
	<g>
		<g>
			<path fill-rule="evenodd" clip-rule="evenodd" fill="#FFFFFF" d="M29.867,22.768c1.241-1.136,1.86-2.606,1.86-4.416
				c0-3.763-2.35-5.64-7.05-5.64h-4.739v11.77h3.667C26.541,24.481,28.626,23.919,29.867,22.768z"/>
			<path fill-rule="evenodd" clip-rule="evenodd" fill="#FFFFFF" d="M31.098,30.201c-1.268-0.485-3.27-0.726-6.005-0.726h-5.154
				v12.418h5.426c3.019,0,5.058-0.236,6.132-0.716c1.069-0.478,1.935-1.224,2.594-2.228c0.646-1.015,0.978-2.091,0.978-3.257
				c0-1.191-0.349-2.283-1.035-3.278C33.336,31.429,32.356,30.693,31.098,30.201z"/>
			<path fill-rule="evenodd" clip-rule="evenodd" fill="#FFFFFF" d="M0,0v54.809h53.901V0H0z M39.25,41.55
				c-1.015,1.574-2.492,2.852-4.449,3.849c-1.952,0.985-4.406,1.482-7.338,1.482H14.43V7.719h10.079c3.178,0,5.659,0.44,7.438,1.3
				c1.785,0.871,3.138,2.069,4.078,3.591c0.945,1.529,1.402,3.292,1.402,5.292c0,3.847-1.954,6.6-5.866,8.265
				c2.808,0.542,5.048,1.721,6.709,3.529c1.667,1.823,2.494,3.981,2.494,6.508C40.764,38.2,40.257,39.978,39.25,41.55z"/>
		</g>
		<g>
			<path fill-rule="evenodd" clip-rule="evenodd" fill="#FFFFFF" d="M93.603,30.201c-1.263-0.485-3.27-0.726-6.005-0.726h-5.152
				v12.418h5.426c3.02,0,5.056-0.236,6.13-0.716c1.069-0.478,1.939-1.224,2.596-2.228c0.646-1.015,0.975-2.091,0.975-3.257
				c0-1.191-0.348-2.283-1.034-3.278C95.841,31.429,94.866,30.693,93.603,30.201z"/>
			<path fill-rule="evenodd" clip-rule="evenodd" fill="#FFFFFF" d="M92.374,22.768c1.238-1.136,1.855-2.606,1.855-4.416
				c0-3.763-2.343-5.64-7.047-5.64h-4.737v11.77h3.668C89.047,24.481,91.134,23.919,92.374,22.768z"/>
			<path fill-rule="evenodd" clip-rule="evenodd" fill="#FFFFFF" d="M62.278,0v54.809h53.903V0H62.278z M101.759,41.55
				c-1.02,1.574-2.491,2.852-4.446,3.849c-1.959,0.985-4.411,1.482-7.345,1.482h-13.03V7.719h10.078c3.178,0,5.662,0.44,7.438,1.3
				c1.785,0.871,3.139,2.069,4.078,3.591c0.94,1.529,1.402,3.292,1.402,5.292c0,3.847-1.954,6.6-5.868,8.265
				c2.81,0.542,5.048,1.721,6.714,3.529c1.666,1.823,2.492,3.981,2.492,6.508C103.271,38.2,102.764,39.978,101.759,41.55z"/>
		</g>
		<path fill-rule="evenodd" clip-rule="evenodd" fill="#FFFFFF" d="M124.558,0v54.809h53.9V0H124.558z M167.631,43.962
			c-4.043,2.25-8.708,3.369-14,3.369c-4.297,0-7.938-0.885-10.932-2.643c-2.994-1.75-5.361-4.17-7.112-7.249
			c-1.74-3.095-2.615-6.42-2.615-10.011c0-5.702,2-10.496,5.992-14.383c3.994-3.881,8.928-5.831,14.776-5.831
			c4.049,0,8.534,1.077,13.478,3.22v6.03c-4.506-2.611-8.907-3.924-13.204-3.924c-4.396,0-8.062,1.417-10.966,4.25
			c-2.914,2.833-4.377,6.369-4.377,10.638c0,4.294,1.442,7.828,4.297,10.596c2.869,2.765,6.535,4.147,10.991,4.147
			c4.665,0,9.221-1.462,13.672-4.374V43.962z"/>
	</g>
	<g>
		<g>
			<path fill="#FFFFFF" d="M232.816,0.69h7.276v53.506h-6.587l-35.773-41.208v41.208h-7.2V0.69h6.205l36.079,41.558V0.69z"/>
			<path fill="#FFFFFF" d="M251.545,0.69h30.335v6.817h-22.675v16.316h21.908v6.855h-21.908v16.624h23.402v6.817h-31.063V0.69z"/>
			<path fill="#FFFFFF" d="M358.923,0.69h7.64l-21.631,53.735h-1.684l-17.495-43.51l-17.675,43.51h-1.646L284.867,0.69h7.718
				l14.746,36.883L322.175,0.69h7.242l14.913,36.883L358.923,0.69z"/>
			<path fill="#FFFFFF" d="M385.751,31.777l-5.821-3.537c-3.651-2.23-6.249-4.423-7.795-6.582c-1.544-2.157-2.316-4.64-2.316-7.449
				c0-4.213,1.463-7.634,4.385-10.265C377.128,1.316,380.926,0,385.599,0c4.468,0,8.565,1.255,12.294,3.764v8.694
				c-3.855-3.708-8.004-5.564-12.447-5.564c-2.502,0-4.558,0.58-6.166,1.736c-1.609,1.157-2.414,2.639-2.414,4.444
				c0,1.603,0.593,3.104,1.778,4.502c1.184,1.399,3.09,2.868,5.716,4.406l5.85,3.462c6.526,3.898,9.791,8.86,9.791,14.886
				c0,4.289-1.437,7.774-4.31,10.456c-2.872,2.681-6.606,4.022-11.203,4.022c-5.285,0-10.099-1.625-14.438-4.875v-9.728
				c4.137,5.241,8.923,7.861,14.363,7.861c2.398,0,4.397-0.668,5.993-2.004c1.595-1.335,2.394-3.008,2.394-5.019
				C392.799,37.789,390.45,34.7,385.751,31.777z"/>
		</g>
	</g>
</g>
</svg>
